<svg xmlns="http://www.w3.org/2000/svg" viewBox="0 0 275.16 170.19"><title>paper-left</title><g id="Layer_2" data-name="Layer 2"><g id="Layer_1-2" data-name="Layer 1"><g id="Yriqia.tif"><path d="M38,107.74c2.63,1.92,6.19,3.17,6.22,7,1,2,3.08,2.88,5.14,3.88q41.59,20.13,83.19,40.27c9.13,4.42,16.29,3.29,26.56-4.91,3.74-3,6-3.06,8.5-1.39.36.24.85.36,1.21.61,10.3,6.93,20.37,3.83,35.82-10.13,1.93-1.74,3.07-2.27,4.58-1.32,6.46,4.06,13.79,1.77,21.87-3.15,6.28-3.82,13.24-6.77,16.36-13.39.82-1.76,3.15-2.09,4.92-2.94,7-3.34,14-6.66,20-11.71,2.19-2.18,3.14-4.4,2.74-6.67-.48-4.33.14-9-1.11-13.1-.44-3.12-3.23-4.41-5.95-5.73Q235.85,69.44,203.7,53.86c-1.48-.72-2.83-1.59-4.24-2.39-1-2.32-4.16-2.67-6.31-4.43,2-2.15,5.55-3.19,6.86-5.81,6.6-9.38,4.89-21.32-3.68-25.49C186.64,11,176.87,6.39,167.24,1.62c-4-2-8.56-2.13-14.13-.49C136,6.19,118.86,11,101.74,16c-3.64,1.08-6.37.95-9-.36C88,13.24,83.5,10.39,77.45,9.52l-3.35,1c-18.39,8-35.3,19-53,28.47-4.21,2.25-8.4,4.59-12.52,7C1.56,50.11-.08,52.6,0,58.73c.51,5.81.11,11.9,1.23,17.52-.06,3.34,3.8,4.53,4,7.75,2.08,2.74,5.81,3.82,9,5.45s6.63,3.47,10.19,4.9C31.19,97.09,37.18,100.38,38,107.74Z" style="fill:#202020"/><path d="M271.46,110.4c-7.45,4.53-14.65,9.64-23.08,11.94-1.64.45-2.13,1-2.49,2.35-1.15,4.36-5,7.12-9.51,9.86-11.24,6.88-22,12.48-30.49,3.66-4.29,9.94-13.83,13-22.23,16.85-4.14,1.88-7.57.16-10.67-1.33-5-2.4-8.65-7-17.64,1.37-7,6.58-14.82,6.27-21.79,2.78-28-14-56.45-27.51-84.74-41.2-1.49-.72-3.09-1.32-4.64-2-.8,5.39,1.81,8.6,6.54,10.87,30.13,14.45,60.13,29.06,90.18,43.6,5.84,2.83,14.76-.51,18.71-7.23,2.08-3.56,4.55-4.64,7.49-3.28,5.25,2.42,10.22,5.16,15.31,7.76l5.59-1.6c2.5-1.66,5.4-2.22,8-3.71a16.2,16.2,0,0,0,7-7.76c1.83-4.12,2.81-4.55,6.57-2.8a73,73,0,0,0,8.29,3.1,8.06,8.06,0,0,0,3.46.48c6.06-.61,20.67-10.52,22.56-15.67,1.15-3.13,2.79-4,6.41-4.89,7.18-1.75,13.77-5.87,19.59-10.54C274,119.77,274.21,114.38,271.46,110.4Z" style="fill:#cacaca"/><path d="M200,41.23,190.57,47l8.89,4.45C201.42,47.66,200,44.6,200,41.23Z" style="fill:#c5c5c5"/><path d="M38,107.74c1-5.71-1.34-9.19-6.8-11.42-9-3.68-17.35-8.17-26-12.32-1.41,7.75,4.55,10.5,10.5,13.27C23.13,100.74,30.53,104.25,38,107.74Z" style="fill:#c9c9c9"/><path d="M42.51,83c3.09,1.06,1.6,4.18,2,6.43.45,2.63.57,5.38.83,8.08a22.66,22.66,0,0,0,5.86,3.8c16.27,7.84,32.36,15.87,48.77,23.53,13.25,6.18,25.28,13.69,38.69,19.68,2.64,1.18,4.28,3,4.27,5.87,0,1.49.06,3,1.44,3.84a18.36,18.36,0,0,0,11.76-6.38c2.19-2.42,0-9.41-2.89-10.82-10.47-5.15-21-10.21-31.53-15.31l-2.45-1.19c-1.13-.56-2.29-1.21-.89-2.77,1.2-1.33,2.37-.85,3.41-.46l3,1.15a14.63,14.63,0,0,0,6,.67,35.13,35.13,0,0,1,21.39,4.35c6.7,3.65,13.77,6.91,20.85,10.14,5.14,2.35,8.35,5.76,8,11.53-.08,1.63-.09,3.35,1.57,4.2,4.89-.92,8.77-4.3,13.1-6.56a5.21,5.21,0,0,0,1.9-2c2.06-3.81-.63-13.37-4.25-15.13q-21.06-10.23-42.16-20.42c-.81-.4-1.64-.78-2.44-1.19-1.1-.57-2.39-1.23-.93-2.75s2.68-.73,3.83-.28c.86.33,1.74.63,2.61.94a20.67,20.67,0,0,0,5.57.56,37.16,37.16,0,0,1,24.72,5.8c8.24,5.19,17.48,9.27,26.56,13.51,4.46,2.08,7.1,4.86,6.66,9.88-.17,1.94-.14,3.93,1.63,5.08,6.54-1.62,11.9-5.94,17.74-9.14a3.38,3.38,0,0,0,1.57-2.12c-.22-5.57,1.74-11.9-4.8-14.93-16.73-7.74-33.09-15.91-49.59-23.91L182,85.53c-1.15-.56-2.25-1.29-.83-2.79,1.13-1.19,2.37-.84,3.41-.38a14.51,14.51,0,0,0,1.8.56,22.75,22.75,0,0,0,9,1.08,32.69,32.69,0,0,1,18.86,4c7.7,4,15.66,7.75,23.62,11.48,6,2.8,10.54,6.34,9.78,13.55-.27,2.56,1,4.28,5,1.93a36.78,36.78,0,0,0,4.2-2.14c3.87-2.68,10.54-3.67,11.14-8.24.81-6.09.88-11.88-6-15.11C224,71.54,186.36,53.07,148.59,34.77c-.82-.39-1.68-.75-2.46-1.18-1.24-.7-3.4-1.13-1.59-3.23,1.67-1.93,2.83-.15,4.29-.24,4.77,1.6,10.64.62,16,.72,2.44.05,5-.08,7.44-.08,4.46,0,6.48,1.89,6.86,5.49.34,3.24-.87,7.13,2,9.41,4.43-1.67,8.35-4.4,12.46-6.71a7.82,7.82,0,0,0,2.62-2.19c1.82-2.78-.32-13.63-3-14.94-10.47-5.15-21-10.18-31.52-15.3-2.68-1.31-5.84-.76-9.31.25-16.55,4.82-33.11,9.39-49.65,14.39-6.26,1.9-11,1.58-15.53-.61-13.57-6.51-8-7-25.16,2.41C43.68,33.12,25.44,43.61,7.13,54,6.59,55.9,8.33,56.34,9.58,57c8.08,4.48,16,9.15,24.78,12.83,4.42,1.85,7.08,4.55,6.6,9.44C40.82,80.8,40.94,82.32,42.51,83Z" style="fill:#fefefe"/><path d="M144.36,154.27c1-6.24-2.19-9.57-7.64-12.35-28.43-14.48-57.36-28.39-86.22-42.38-1.62-.78-3.45-1.33-5.17-2-1.27,6.54,1.17,10.56,7.24,13.4,29.06,13.63,57.68,27.75,86.5,41.65C140.65,153.36,141.83,154.77,144.36,154.27Z" style="fill:#eaeaea"/><path d="M42.51,83C43.75,74.79,39.9,70,32,67.09,22.82,63.75,15.23,58.55,7.13,54c-.53.5-1.48,1.07-1.54,1.5-1,6.79-.18,13.09.55,19.37.39,3.39,4.65,4,7.58,5.49C22.31,84.58,31,88.74,39.74,93,42.08,89.17,37.62,86.49,42.51,83Z" style="fill:#ebebeb"/><path d="M219.51,136.82c1.52-9.69-3.24-15.09-12.3-18.59-9.5-3.68-17.89-8.76-26.53-13.48-7.32-4-16.42-4.1-26.31-2.76,13.7,6.75,27.37,13.53,41.12,20.23,2.77,1.35,5.3,2.83,6,5.72.56,2.16,3,2.63,4.88,3.44C210.78,133.19,214.18,136.17,219.51,136.82Z" style="fill:#eaeaea"/><path d="M182.71,149.38c1.29-9.62-3.24-15.43-12.44-18.72a95.11,95.11,0,0,1-18-8.71c-7.49-4.66-17.12-4.6-27.46-3.46,9.74,4.82,19.45,9.69,29.25,14.45,2.91,1.41,5.52,3,6.44,5.95.16.52.36,1.17.85,1.37C168.61,143.15,174.16,148.06,182.71,149.38Z" style="fill:#eaeaea"/><path d="M252.67,115c-2.94.92-4.13,0-3.75-2.29,1.33-8-4-11.47-10.45-14.42C231.41,95,224,92.05,217.71,88.07c-8.56-5.4-19.52-5.9-31.35-5.15q24.85,12.19,49.73,24.38c2.88,1.41,5.31,3,6.45,5.93C243.89,116.74,248.29,117.21,252.67,115Z" style="fill:#eaeaea"/><path d="M181.16,45.66c-.18-3.34-.49-6.66-.49-10,0-4.27-2.34-6.34-7.54-6.16-8.12.28-16.2.45-24.3.67C159.33,35.61,169.92,41,181.16,45.66Z" style="fill:#e9e9e9"/></g></g></g></svg>