<svg xmlns="http://www.w3.org/2000/svg" viewBox="0 0 241.53 209"><title>paper-right</title><g id="Layer_2" data-name="Layer 2"><g id="Layer_1-2" data-name="Layer 1"><g id="Yriqia.tif"><path d="M210.06,97c-2.24,3-5.33,5.53-5.2,9.79-.78,2.48-2.6,4.21-4.37,6q-35.88,35.85-71.75,71.72c-7.87,7.87-14.25,8.91-23.66,3.06-3.43-2.13-5.39-1.51-7.56,1.17-.32.39-.74.68-1,1.07-8.79,11-17.82,10.83-32.06.2-1.78-1.33-2.81-1.54-4.1,0-5.53,6.6-12.1,6.4-19.45,3.51-5.71-2.25-12-3.31-15-9.71-.81-1.69-2.87-1.32-4.47-1.69-6.31-1.49-12.65-2.93-18.16-6.66a7.24,7.24,0,0,1-2.7-6.56c.23-5-.51-10,.42-15,.26-3.63,2.66-6,5-8.32Q33.69,117.85,61.41,90.1c1.27-1.28,2.43-2.68,3.64-4,.79-2.92,3.56-4.32,5.38-7-1.86-1.76-5-1.77-6.3-4.28C57.9,66.45,58.9,52.56,66.3,45.14,74.65,36.77,83.08,28.46,91.38,20A16.24,16.24,0,0,1,103.83,15c15.33.14,30.67,0,46,.11a10.14,10.14,0,0,0,7.92-3.3C161.88,7.53,165.7,2.92,171,0h3c16.58,3.05,32,9.9,48,14.77q5.73,1.74,11.36,3.81c6.39,2.36,7.94,4.62,8.12,11.49-.19,6.66.42,13.32-.34,20,.2,3.71-3.16,6.28-3.16,9.92-1.72,3.73-5,6.14-7.71,9s-5.71,6-8.79,8.75C215.58,82.94,210.43,88.54,210.06,97Z" style="fill:#202020"/><path d="M4,175c6.77,2.65,13.35,6.05,20.89,5.91,1.47,0,1.93.44,2.3,1.83,1.2,4.5,4.74,6.34,8.81,8,10.22,4.07,20,6.84,27.09-5.72,4.21,9.73,12.76,10.11,20.34,11.68,3.74.77,6.7-2.26,9.37-4.92,4.32-4.29,7.33-10.65,15.63-4.14,6.49,5.09,13.35,2.24,19.36-3.89,24.14-24.64,48.67-48.88,73.07-73.26,1.29-1.28,2.68-2.46,4-3.69.94,5.76-1.23,10.19-5.32,14.24q-39,38.74-77.77,77.68a10.57,10.57,0,0,1-16.83-2.06c-2-3.3-4.22-3.71-6.75-1.25C93.65,199.8,89.38,204.46,85,209H80c-2.28-1.05-4.86-.74-7.2-1.57A11.08,11.08,0,0,1,66.27,201c-1.79-4-2.68-4.17-5.92-1a89,89,0,0,1-7.19,6.12,7.87,7.87,0,0,1-3,1.66c-5.37,1.26-18.69-5.12-20.58-10.26-1.15-3.13-2.63-3.58-5.87-3.4-6.42.35-12.41-2.13-17.75-5.48C2.18,186.29,1.72,180.36,4,175Z" style="fill:#cacaca"/><path d="M1,170l-1,0V154a.8.8,0,0,0,.94-.1Z" style="fill:#4d4d4d"/><path d="M64.13,74.81l8.58,3.43-7.66,7.83C63.15,82.45,64.27,78.58,64.13,74.81Z" style="fill:#c5c5c5"/><path d="M210.06,97c-1.1-6.06.78-10.69,5.51-14.94,7.79-7,15-14.7,22.41-22.11,1.57,8.21-3.57,13.19-8.7,18.2Q219.64,87.57,210.06,97Z" style="fill:#c9c9c9"/><path d="M205,70.89c-2.69,2.18-1.24,5.18-1.49,7.81-.29,3.09-.27,6.2-.38,9.3a33.53,33.53,0,0,1-5,6.13c-14,14-27.9,28.13-42.07,42-11.43,11.16-21.73,23.41-33.32,34.41a10,10,0,0,0-3.52,7.94c.06,1.65.08,3.35-1.11,4.74-4.22,1-7.86-.61-10.65-3.34-2-2-.38-10.53,2.08-13,9-9.12,18.13-18.17,27.2-27.24l2.11-2.12c1-1,2-2.09.67-3.38-1.11-1.1-2.13-.19-3,.59l-2.64,2.25a13.65,13.65,0,0,1-5.29,2.7c-7.62,1.73-13.47,6.08-18.7,11.73-5.77,6.22-11.87,12.14-18,18-4.43,4.28-7.13,9.11-6.61,15.47.14,1.79.22,3.7-1.21,5.18-4.36.55-7.93-2-11.85-3.11a3.49,3.49,0,0,1-1.76-1.62c-2-3.59,0-15.13,3.11-18.27q18.15-18.19,36.35-36.36c.71-.7,1.42-1.4,2.11-2.12,1-1,2-2.13.71-3.36s-2.4,0-3.4.91c-.74.65-1.51,1.27-2.26,1.9a19.09,19.09,0,0,1-4.9,2.41c-9,2.07-15.85,7.57-21.58,14.43-7.06,8.44-15,16-22.88,23.62-3.85,3.76-6.06,7.71-5.46,13.17.23,2.11.29,4.36-1.22,6.2-5.85.3-10.76-2.81-16.06-4.5a2.58,2.58,0,0,1-1.47-1.87c0-6.29-2.05-12.73,3.6-18.22,14.45-14,28.54-28.4,42.77-42.64l2.11-2.12c1-1,1.93-2.16.62-3.38-1-1-2.13-.17-3,.68A17.84,17.84,0,0,1,78,117a21.56,21.56,0,0,1-7.9,4.1c-6.72,1.69-11.81,5.65-16.49,10.56-6.63,7-13.5,13.68-20.36,20.41-5.15,5-9,10.47-8.07,18.27.35,2.78-.68,5.11-4.37,3.78a19.91,19.91,0,0,1-3.8-1c-3.54-1.74-9.46-.7-10.19-5.62-1-6.54-1.29-13,4.62-18.79,32.86-32.29,65.29-65,97.86-97.58.71-.71,1.45-1.38,2.12-2.12,1.06-1.18,3-2.35,1.27-4.11s-2.51.74-3.8,1.11c-4.14,3.32-9.37,4.1-14.13,6-2.16.83-4.39,1.5-6.58,2.3-3.93,1.43-5.64,4.19-5.82,8.34-.17,3.73,1.07,7.68-1.36,11.15-4-.44-7.55-2.23-11.29-3.49a5,5,0,0,1-2.41-1.61c-1.72-2.52-.29-15.32,2-17.65,9-9.11,18.13-18.13,27.17-27.21,2.32-2.33,5.13-2.73,8.23-2.72,14.82.06,29.64-.15,44.46.12a17.66,17.66,0,0,0,13.69-5.68c11.7-11.62,6.78-10.44,22.31-5.39C201.83,15.5,218.38,21.36,235,27c.56,2-.95,3-2,4.23-6.94,7.6-13.72,15.36-21.33,22.3-3.82,3.49-6.06,7.35-5.43,12.66C206.38,67.84,206.34,69.58,205,70.89Z" style="fill:#fefefe"/><path d="M118.08,183.18c-1.13-6.65,1.53-11.39,6.22-16.24,24.49-25.31,49.45-50.15,74.34-75.06,1.39-1.39,3-2.59,4.48-3.88,1.39,6.89-.59,12.17-5.83,17.3-25.08,24.56-49.75,49.53-74.61,74.31C121.32,181,120.33,182.93,118.08,183.18Z" style="fill:#eaeaea"/><path d="M205,70.89c-1.45-8.82,1.74-15.44,8.59-21.2C221.55,43,228,34.76,235,27c.5.39,1.36.72,1.43,1.18,1.21,7.25.71,14.56.34,21.82-.2,3.91-3.93,6-6.46,8.56-7.4,7.53-14.89,15-22.43,22.53C205.63,77.59,209.45,73.17,205,70.89Z" style="fill:#ebebeb"/><path d="M51,187.84C49.22,177.51,53.2,170,61.05,163.13,69.28,156,76.47,147.6,83.9,139.55c6.3-6.83,14.33-9.87,23.12-11.54q-17.72,17.91-35.45,35.8c-2.39,2.41-4.56,4.87-5.1,8.34-.4,2.59-2.5,3.89-4.17,5.41C58.53,181,55.65,185.41,51,187.84Z" style="fill:#eaeaea"/><path d="M84,190c-1.55-10.33,2.21-18.27,10.19-24.9a124.86,124.86,0,0,0,15.51-15.51c6.42-7.61,14.92-10.65,24.1-12.7-8.39,8.52-16.76,17.08-25.21,25.55-2.51,2.51-4.75,5.1-5.43,8.72a3.34,3.34,0,0,1-.7,1.8C96.2,178.55,91.5,185.82,84,190Z" style="fill:#eaeaea"/><path d="M20.77,174.1c2.64.08,3.64-1.35,3.21-3.76-1.51-8.45,3.07-14.1,8.61-19.46,6.1-5.9,12.48-11.58,17.9-18.07C57.82,124,67.48,120,78,117Q56.53,138.59,35.08,160.2c-2.48,2.5-4.56,5-5.44,8.7A6.87,6.87,0,0,1,20.77,174.1Z" style="fill:#eaeaea"/><path d="M81,73.7c0-3.8.15-7.6,0-11.39-.18-4.76,1.79-7.83,6.39-9.3,7.18-2.29,14.33-4.7,21.49-7.06C99.81,55.45,90.69,64.88,81,73.7Z" style="fill:#e9e9e9"/></g></g></g></svg>