<svg xmlns="http://www.w3.org/2000/svg" viewBox="0 0 199.72 197"><title>rock-right</title><g id="Layer_2" data-name="Layer 2"><g id="Layer_1-2" data-name="Layer 1"><g id="_05lhl1.tif" data-name="05lhl1.tif"><path d="M.75,83a1.52,1.52,0,0,1-.16-1,49,49,0,0,1,0-15.1C1,63.64,3.05,61.2,5.25,59c8.48-8.42,17.15-16.65,25.63-25.08a18.92,18.92,0,0,1,14.61-6.05c16.13.34,32.28,0,48.43.17a11.17,11.17,0,0,0,8.8-3.66c6-6.22,12.34-12.15,18.2-18.51C123,3.64,126.6,3.31,127.6,0h10c4.94,1.08,9.94.23,14.9.5a17.73,17.73,0,0,1,12.71,6.1C175,17,185.64,26.51,195.05,37.28A16.42,16.42,0,0,1,199.6,49c-.07,4.38.17,8.75-.14,13.12-2.52,3.45-3.76,1.07-5-1.11-1.14-2.71-.9-5.9-2.79-8.37a4.94,4.94,0,0,1-1-3.87,3.89,3.89,0,0,0-1.19-2.33c-6.65-6.15-12.34-13.22-18.83-19.53-4.29-4.2-8.49-8.49-12.75-12.71-3.25-3.22-7.22-4.1-11.65-4.91-13.93-2.55-22.6,5.08-30.57,14.59-1.41,1.68-1.86,3,.26,4.53a4.08,4.08,0,0,1,1.62,4.86c-.74,2.27-2.64,2.8-4.73,3s-4.33.17-6.5.17c-18.66,0-37.33.2-56-.1-7-.11-12.54,1.9-17.32,7.07-5.76,6.24-11.82,12.22-18,18C10.18,66,7.65,71.22,8,77.85c.08,1.62.35,3.38-1,4.77C5.07,85.1,3,85,.75,83Z" style="fill:#212121"/><path d="M128.53,171.85c-8.16,8.88-16.07,18-25.93,25.15h-2c-2.76-3.27-.42-7.33,1.45-7.94,5.74-1.88,4.33-5.59,3.78-9.42,4.65-6.87,9.52-13.5,17.66-16.68C126.46,165.18,130.3,166.93,128.53,171.85Z" style="fill:#cacaca"/><path d="M107.55,179.82a9.18,9.18,0,0,0,.46,1.4c1,1.94,4.91,3.59,1,6-1.69,1.05-1.78,4.42-5.24,3.45-.62-.17-3,3.65-3.19,6.3h-3l-1.94-1.07c-.72-2.87-3.74-3-5.5-4.55a5.45,5.45,0,0,1-.88-1c-1-2.69-.18-4.1,2.77-4.05a9.94,9.94,0,0,0,9.21-4.91C103,179.6,104.9,178.1,107.55,179.82Z" style="fill:#c9c9c9"/><path d="M192.76,108.1a17.78,17.78,0,0,1-8,8.05c-1.47-.21-2.79-.27-2,1.9a63,63,0,0,1-9.08,9.1c-4.1.13-6.56,3.6-10.07,5-4.78,1.84-6.54,1.09-7.84-3.72.32-1.94,1.79-3.13,3-4.45a15.18,15.18,0,0,0,4.34-11.3c-.24-4.53,1.56-7.84,4.78-10.88,5.53-5.23,10.72-10.83,16.26-16.06,1.49-1.4,3-3.43,5.52-1.6,8,3.22,10.31,9.4,7,19C192.48,102.52,192.14,105,192.76,108.1Z" style="fill:#cacaca"/><path d="M189.65,84.1Q178.49,95,167.3,106c-.87.85-1.61,1.6-1.42,2.93,1.19,8.31-2.32,14.69-8.3,20-1.13,1.45-1.1,3.54-2.57,4.83-.57.66-1.19,1.29-1.8,1.95a5.45,5.45,0,0,1-3.24,1.75c-2.43-.54-5.6.53-6.69-3-.69-2.94,1.45-4.41,3.26-5.92,1.21-1,2.79-1.58,3.63-3,.71-.92,1.54-1.74,2.17-2.73a5.16,5.16,0,0,1,1.37-1.57c2.32-1.91,4-4.18,3.89-7.36,2-7.48.64-15.29,2.28-22.8a2.36,2.36,0,0,1,2.93-.44c1.92,1.13.77,3.92,2.71,5,2.67-.13,3.15-2.74,4.62-4.15,5.41-5.18,10.64-10.55,15.92-15.86,2-2.05,3.77-4.23,4.05-7.25s.13-6.56,3.19-8.75a2.16,2.16,0,0,1,2.3.38c1.09.9,1.41,2.54,3,3,1,2.66.5,5.31-.05,8C198.5,77.33,192.89,79.92,189.65,84.1Z" style="fill:#212121"/><path d="M128.53,171.85c-1.16-1-.87-2.95-3.71-2.86s.05-3.55-1.27-5.17c-1-1.52-.52-2.9.6-4,5.69-5.75,11.09-11.79,16.71-17.6A4.21,4.21,0,0,1,143,141a15,15,0,0,0,3.8-.75c5-2.12,7.64-.15,7.8,5.73Q142.18,159.54,128.53,171.85Z" style="fill:#cacaca"/><path d="M154.63,146a32.54,32.54,0,0,1-3.49-3.56c-1.4-1.89-2.67-1.94-3.83,0s-2.2,2.51-3.72.48c-1.44-5.41,3-5.52,6.14-6.87l1.94-1.94a2.63,2.63,0,0,1,2.06-2.06l3.85-3.13c.15,1.26.27,2.42,2.1,1.51,2.82-1.39,6.06-2.2,8.47-4.08,2.56-2,3.94-1.37,5.51.78C167.67,133.8,161.24,140,154.63,146Z" style="fill:#c9c9c9"/><path d="M192.76,108.1a15.57,15.57,0,0,1-2.13-1.16c-1.4-1.06-4.2-1.4-2.72-4.17,1.33-2.49,3.33-3.69,6.08-1.86.94.63,1.77,1.43,2.66,2.15C196.11,105.33,194.51,106.77,192.76,108.1Z" style="fill:#cacaca"/><path d="M182.74,118.05c-.72-.4-1.43-.82-2.17-1.19-1-.49-2.58,2.12-3-.59a2.69,2.69,0,0,1,1.09-2.64,3.23,3.23,0,0,1,3.76,0,11.23,11.23,0,0,1,2.33,2.55Z" style="fill:#c9c9c9"/><path d="M198.5,71c-.62-2.66-.1-5.31.05-8l.12-15.19c.34,1.06.69,2.12,1,3.19,0,2.33,0,4.66,0,7v9C199.18,68.28,199.91,70,198.5,71Z" style="fill:#222"/><path d="M.75,83c2.05,0,4.09,0,5-2.41,3.28-1,4.7-3.24,4.45-6.73-.34-4.69,2.33-8.24,6.18-11.3a55.71,55.71,0,0,0,9.8-9.79c4.07-5.36,8.69-7.15,14.48-5.22,10.59,3.53,21.2,7,31.75,10.63A9.18,9.18,0,0,1,76,59.94a3.94,3.94,0,0,1,1.21,4.52A3.8,3.8,0,0,1,73.8,67c-3.16.35-5.9-1.48-8.89-1.84a49.1,49.1,0,0,1-18.7-5.9c-6.54-3.76-11.53-3.93-15.61.7a10.1,10.1,0,0,1-1.79,1.73c-9.82,6.64-10.74,16.41-9.7,27,.38,3.94,2.65,5.85,6.09,7,9.63,3.24,19.28,6.43,28.91,9.66,10.11,3.38,20.24,6.71,30.33,10.15a20.66,20.66,0,0,1,4.61,1.88,4,4,0,0,1,1.76,4.79A3.83,3.83,0,0,1,86.64,125a18.42,18.42,0,0,1-5.32-1.3c-16-5.25-31.91-10.67-47.9-15.89-2.64-.85-5.83-3-7.86,1a8,8,0,0,0,4,10.52c6.31,2.61,12.91,4.45,19.38,6.64,11.2,3.79,22.44,7.47,33.65,11.23,1.58.53,3.17,1,4.7,1.7,2.31,1,4.23,2.41,3.51,5.25-.8,3.16-3.41,3.19-6,2.87a13.48,13.48,0,0,1-2.42-.56c-14.27-4.69-28.5-9.53-42.78-14.2-2.16-.71-4.34-1.94-6.68-.55-1.81,2.05-1.14,4.09,0,6.12,1.74,2.29,4.38,2.93,6.88,3.77,14.8,4.95,29.63,9.8,44.37,14.91,2.78,1,7.19,1.44,5.75,5.85s-5.41,2.71-8.5,1.73c-11.71-3.71-23.31-7.76-35-11.58-2-.65-4-1.8-6.2-.89a1.49,1.49,0,0,0-.26,1.95c1.28,2,3.39,2.54,5.4,3.23,5.43,1.87,10.93,3.58,16.33,5.52,1.83.66,3.84,1.09,5,3,.15,2.62,1.78,5.42-.94,7.68a5.74,5.74,0,0,1-4.86.09c-7.44-3.24-15.53-4.41-23-7.45-4.36-1.77-7.81-4.36-9.79-8.7-1.28-2.63,1.08-5.33-.13-8-.66-1.64-2.35-2.18-3.52-3.27a4.11,4.11,0,0,1-.93-4.66c0-3.49,0-7-.21-10.46-.07-1.46,0-3.24-1.26-4.18-6.32-4.52-5.66-11.12-5.4-17.59.15-3.56-1.64-6-3.23-9C10.29,93.81,3.45,89.53,1.6,84,.6,81,.9,83.78.75,83Z" style="fill:#212121"/><path d="M25.71,145,29.53,147c1.53,2.86-.32,6.13,1.07,9,.4,3.39,2.78,5.31,5.59,6.29,9.73,3.43,19.4,7.07,29.41,9.62,1.11-.5,1.86,0,2.51.87,1.4,1.9-2,3.77.14,5.89,1.85,1.84,3.41,3.76,6.37,3.33,2.62,1.76,4.07,3.85,2,6.95-5.18-.52-10-2.26-14.83-4.12-11.63-4.53-23.49-8.35-35.4-12.06-2.06-.64-4.17-1.21-5.82-2.73-2-2.25-5.31-4.32-.65-7.57-3.59-1-5.45-3.28-5.12-7,.31-3.51,1.94-5.89,5.79-6.11,1.53-.08,1.6-1.34,2-2.42C23.07,145.58,23.7,144.15,25.71,145Z" style="fill:#cacaca"/><path d="M76.6,189l-3-6c-5.67-2.53-6.09-5.89-1.25-9.84,2.39-.8,4.62.06,6.72.92,5.5,2.25,11.13,4.15,16.6,6.45,3,3.33,2.69,6.32-.37,6-4.75-.56-6,2.7-8.42,5a6.91,6.91,0,0,1-1.31.64A26.05,26.05,0,0,1,76.6,189Z" style="fill:#cacaca"/><path d="M25.71,145c-1.46,1-1.43,2.09-.32,3.29,3.28,3.53.43,3.86-2.24,4.47-2,.46-5.43-2.55-5.8,1.93-.32,3.74,1.91,6,5.55,6.79,1.07.23,2.15.41,4.75.9-5.17,1.34-10,1.77-7.1,7.73-8.51-3.4-11-14.89-4.6-21.81,2.36-2.56,5-4.85,7.54-7.26Z" style="fill:#cacaca"/><path d="M90.6,190c1.4.4,2.82.73,4.18,1.22,2.93,1.05,3.63,2.57.87,4.71a17.45,17.45,0,0,1-7.2-2.84C88.67,191.71,89.11,190.49,90.6,190Z" style="fill:#cacaca"/><path d="M90.6,190a3.31,3.31,0,0,1-2.14,3.09l-2.89-.93,0-1.16C87.11,189.85,88.69,189.09,90.6,190Z" style="fill:#c9c9c9"/><path d="M65.58,166.11c-8.09-2.71-16.17-5.49-24.3-8.09A9,9,0,0,1,36.47,155c-.72-2.06-.28-4.18-.34-6.27,0-1.63.71-2.45,2.44-1.89Q62,154.87,85.46,162.88c1.18.4,3.05.67,3.44-.95.48-2-1.46-1.78-2.78-2.22-17.52-5.9-35-11.93-52.53-17.78-1.82-.61-3.29-1.23-4.15-3-.18-4.32-1.24-8.67.53-12.91q27.64,9.35,55.31,18.66c1.34.44,3.31,1.32,4-.51.83-2.33-1.62-2.56-3-3-19.08-6.42-38.14-12.9-57.31-19-4.54-1.45-6.41-3.52-6.29-8.45.3-12.18.07-12.19,11.56-8.34L83.4,121.83a33.92,33.92,0,0,0,3.82,1.09A1.69,1.69,0,0,0,89.3,122c.49-1.18-.19-1.94-1.17-2.36-1.38-.58-2.8-1.06-4.22-1.53-20.67-6.9-41.3-13.89-62-20.58-4.17-1.35-5.36-3.43-5.89-7.74-1.65-13.36,2.24-23.7,13-32.23,4.64-3.67,8-5.19,13.62-3,9.44,3.69,19.21,6.52,28.85,9.69,1.5.49,3.51,1.82,4.34-.33s-1.48-2.49-3-3C61.61,57.19,50.39,53.51,39.2,49.71a8.23,8.23,0,0,0-9.15,2.08c-4.74,4.68-9.41,9.45-14.16,14.12-3.79,3.72-3.27,8.44-3.43,13.1-.06,1.93,1.42,5-1.16,5.61-2.42.59-4.67-1.3-5.53-4C4.19,70,9.55,62.8,17.11,56.24c6.53-5.66,12.4-12.08,18.43-18.3a12.46,12.46,0,0,1,9.74-4c21.65.12,43.3.06,65,.06,1.33,0,2.67,0,4-.07,1.07-.08,2-.59,2-1.79a1.87,1.87,0,0,0-2-1.78c-2.28-.09-4.57,0-7.26,0C114.22,22.7,121,15.46,128,8.52c1.94-1.92,5-1.44,7.69-1.39,22.54.35,15.13-2.68,31.07,12.8,2,2,3.9,4.08,5.84,6.13,1.31,2,1,3.31-.85,5.05-7.68,7.26-14.68,15.21-22.56,22.25a9.94,9.94,0,0,1-1,1.06c-4.45,5.39-10.33,9.4-14.47,15.13-2.7,3.72-6.46,6.5-10,9.48-3.69,5.53-9.76,8.67-13.86,13.79a20.91,20.91,0,0,1-2.42,2.47c-1.61,1.26-3.51,2.36-3,4.92-.13,3.13-.83,6.2-1,9.33,0,.59,0,1.16-.06,1.73,1.62,11.42-.32,22.81-.31,34.21,0,.63,0,1.26,0,1.89,1,9.34,1.64,18.68-.18,28-.89,3-3,3.85-5.8,3.06-9.59-2.71-19-6-28.36-9.37A6.4,6.4,0,0,1,65.58,166.11Z" style="fill:#fefefe"/><path d="M147.6,53q10.46-10.71,20.9-21.41c1.61-1.65,3.56-3.07,4.08-5.53,6.23,5,10.44,12.08,17.14,16.61a34.72,34.72,0,0,1,3.62,3.57c2,5,1,6,.22,8.14,0,1.65.65,3.32-.13,4.95-3.83,2.17-6.74,6.14-11.42,6.55-2.52.22-1,1.84-1.51,2.68-1.37,3.44-3.94,4.23-6.68,2.09a12.76,12.76,0,0,0-8.21-2.5,3.11,3.11,0,0,1-1-1c.12-3.94,2.11-6.46,7.62-9.64-5,3-9.17,7.3-14.39,10a4.31,4.31,0,0,1-1.16.74c-3,0-4.21,2.34-5.55,4.46-5.71,1-6,.69-5.86-5.74a15.79,15.79,0,0,1-1.18,7c-.12,2-2.53,4.13.27,6a6.13,6.13,0,0,1,1.46,2c1.42,3.81,2.94,7,8,4,1.19-.72,2.6.35,3.11,1.74s1.23,2.72.15,4.22c-1.56,2.17-6.08,3.45-8.51,2.23-1.35-.68-2.66-1.47-4.06-.13a11.34,11.34,0,0,1-5.57-1.46c-3.28-2.11-6.55-1-8.15,2.64-.76,1.71-1.25,3.57-3,4.59a1.82,1.82,0,0,0-.57,1.44,1.87,1.87,0,0,1,.45-1.31,2,2,0,0,1,3,.34c-1.84-2.65-.46-5.59,1.67-7.38a5.29,5.29,0,0,1,7.18,0c1.53,1.37,3.48,1.37,5.41.84.59-.3,1.36-.7,1.83-.29,3.4,3,6.45,1.62,9.5-.58,1.72-1.22,3.28-1.62,3.88,1.13,0,3.71,0,7.42,0,11.12a2.18,2.18,0,0,1-2.63,2.09c-2.07-.2-2.4-1.91-2.94-3.4-.08-.64,0,.26-.1-.4,0,.27.15.45.28.68.17,1.27-.2,2.86,1.89,2.86,2.87,1.79,2,3.83-.18,5-1.86,1-3,2.56-4.46,3.85-3-.57-5.74,2-8.83.85l.35.79c1.21,1.63,4.72-3.12,5.5,1.21-2.14,3.52,2.87,4.47,2.63,7.31l-7.08,7.81a10.06,10.06,0,0,1-3.27,6.45c-11.19,11.12-22.22,22.39-33.52,33.39-1.59,1.54-3.06,4.45-6.15,2.16q0-14.4,0-28.81c2.24-1,4.5-2,3.82-5.11l-.32-.21a2.25,2.25,0,0,1,.62.51c-.46,2.27-.89,4.57-4.12,3.81q0-18,0-36c2.88,0,5.84-.86,8.61.64,5.07.5,8.06-2.29,7.39-6.89-.34-2.26-.34-2.26,3-7.23-2,2.63-3.38,5-2.94,9,.38,3.37-3.22,5.53-7,5.73-2.49-3-6.41,0-9.08-2.21.23-3.35-.7-6.81,1-10,1.84-1.26,4-2.25,4-5l2-2c2.84-.64,4.71-2.81,6.87-4.46,4.9-3.73,5.24-3.76,8.74,1.07a1.78,1.78,0,0,0,1.57.85,1.64,1.64,0,0,1-1.24-.5c-3.75-3.12-1.79-7.23-1.94-11q11.9-13.11,25-25c.61.57.44,1.42.75,2.11C148,54.42,148.21,53.57,147.6,53Z" style="fill:#ebebeb"/><path d="M192.44,54c-1.42.25-2.61,1.42-4.19,1.07-2.41-.54-2.63-2.93-3.28-4.54-.74-1.84,1.67-1.25,2.6-1.88L191.65,46l1.08,2C193.08,50,193.85,52,192.44,54Z" style="fill:#eaeaea"/><path d="M193.77,60c0-2.65,0-5.3,0-8,2.33,2.26,1.08,5.34,1.84,8Z" style="fill:#1f1f1f"/><path d="M101.58,175.81c10.77-9.34,20.26-20,30.49-29.87,4.17-4,8.3-8.08,12.45-12.13,1.16,2.08,3.58,1.26,5.21,2.26l-6.14,6.87-20,20.88a198,198,0,0,0-16,16l-5.16,3.05c-2.59,2.16-5.17.87-7.76,0-7.31-2.61-14.24-6.29-21.91-7.91-1.84-.25-4.11.7-5.15-1.82l-2-1.19c-1.09-1.94-1.94-3.87,0-5.82,10.25,2.11,19.82,6.37,29.8,9.34C97.43,176.06,99.43,177.12,101.58,175.81Z" style="fill:#212121"/><path d="M94.63,182.85l7.76,0c.54,2.61.54,2.61-1.62,2.95-1,.16-1,.16-2.57,4-1.27.65-.3-4.4-2.74-1-1.08,1.49-2.21.31-3.39-.33-2-1.06-1.75.33-1.47,1.59l-5,1c2.61-2.64,4.68-5.68,9.21-5.88C98.07,185,94.76,183.66,94.63,182.85Z" style="fill:#cacaca"/><path d="M189.47,98.18c-2.3,1.07-4.83,1.6-5.47-1.12-.7-3,1.69-2.73,3.72-2.07C187.16,96.59,189.23,96.94,189.47,98.18Z" style="fill:#c9c9c9"/><path d="M194.34,51.24c.09,3.37,0,15-1.63,18.84a10.21,10.21,0,0,1-3.13,5l-25.83,25.69c-1.32-1.51-.35-3.31-.64-4.94.27-2.85,2.46-6.43-3.59-6.07-2.91.17-3.12-3.89-3.51-5.83-.52-2.6-.77-4.28-3.69-4.61a2.28,2.28,0,0,1-2-2.48c.17-2.86,1.2-5.55,1.27-8.54.07-2.49,3.29-.79,5-1.28,1.91-.67,3.36-2.09,5.65-2.3s2.79.72,3.35,2.3c3.42,1.1,6.94,1.8,10.1,3.7,3.43,2,1.7-2,2.9-2.7.51-1.37-.79-1.56-1.4-2.23a1.74,1.74,0,0,1,0-2.3c1.44-1.79,1.2.71,1.71.72,2.34,0,4.72-.32,5.89-2.67C186.77,57.61,191.24,49,194.34,51.24Z" style="fill:#ebebeb"/><path d="M156.6,67c-.54,2.43-4.38.42-3.8,1.64,1.47,3.07.12,5.53-.09,8.3-.1,1.32,2.5,1,3.93,1,3.08.23,4.26.71,2,4.09-1.3,1.92.57,5.35,2.56,6.11,5.39,2,5.52,1.71,2.46,6.81-.95-1-.27-2.34-.93-3.38a1.38,1.38,0,0,0-2.1-.4c-.77.35-.18,1.57-1.15,1.78-.47.12-1.16.09-1.37.39-4.25,6.12-8.94,1.81-13.49.61,1.46-2,3.14-1.92,5.17-.83,2.54,1.37,6-.39,5.82-3-.06-1-.11-3.2-2.16-2.09s-3.74,3.11-6.46.7c-2-1.75-2.19-3.79-2.56-6A7.5,7.5,0,0,0,143.6,81c0-.23,0-.45.05-.68,3-1.9,4.13-5.41,6.64-7.74.11-.19.21-.39.31-.58C150.53,67.84,151.44,64.88,156.6,67Z" style="fill:#eaeaea"/><path d="M147.6,119c-3.12-1.35-2.36,3.64-5.81,2.28-1.45-1.48.06-5.18-2.32-7.46-.32-.3-.25-1.33,0-1.85.48-1,1.36-.45,2.17-.33,2.52.35,2.53,2.55,3.25,5.19,1.52-7,4-5.1,6.71-1.83,1.42-.85,2.3-3.37,4.49-1.85,1.86,1.29.92,3.17.63,5a11.9,11.9,0,0,1-2.09,4.94l-1,1C149.23,125.26,148,122.59,147.6,119Z" style="fill:#eaeaea"/><path d="M154.63,123.07c.46-2.68-2.43-5.55.78-7.91-1.48-1.35-2.64.12-3.81-.16.83-2.21,1.17-4.65,4.33-5.1,1.34-.19,1-1.78.67-2.9l2.86-1c1.23,3.29.63,6.63.32,10A13.07,13.07,0,0,1,154.63,123.07Z" style="fill:#eaeaea"/><path d="M147.6,119c3.53-.13,2.74,4.92,6.06,5l-2.06,2a3,3,0,0,0-.89-.43C144.31,124.81,144.31,124.81,147.6,119Z" style="fill:#eaeaea"/><path d="M159.78,116l-.32-10V93l1.15-1.78C160.16,99.46,161.55,107.77,159.78,116Z" style="fill:#212121"/><path d="M153.73,132.07l-2.06,2.06c-.5-1.23-2.22-2.56-.42-3.74C152.57,129.53,152.88,131.5,153.73,132.07Z" style="fill:#212121"/><path d="M162.71,91.62l.93,3.38c0,1.92.07,3.84.11,5.75C161.41,97.94,163.12,94.66,162.71,91.62Z" style="fill:#212121"/><path d="M30,126.07q-.27,6.45-.53,12.91C28.38,134.62,27.64,130.28,30,126.07Z" style="fill:#242424"/><path d="M38.57,146.8c-4.44,1.76-1.4,5.44-2.1,8.16-1.06-1.94-1-4.05-.78-6.14C35.85,147.08,36.62,146.06,38.57,146.8Z" style="fill:#242424"/><path d="M30.6,156c-1.62-2.85-.4-6-1.07-9C31.28,149.85,30.39,153,30.6,156Z" style="fill:#242424"/><path d="M67.57,173.12a11.6,11.6,0,0,1,5.15,1.82c-3.42,3.09-.56,5.5.88,8.06-2.18,1.42-4.88,5.89-5.65-1a1.06,1.06,0,0,0-.49-.72C62.18,178.79,62.2,177,67.57,173.12Z" style="fill:#c9c9c9"/><path d="M57.18,176.44c-1.34-.42-3.26,0-3.22-2,0-.42.86-1.15,1.36-1.18C57.63,173.13,57,175,57.18,176.44Z" style="fill:#c9c9c9"/><path d="M89.64,62.67a26.87,26.87,0,0,0,0,4.49c2,11-5.78,16.6-12.66,22.57-2.13,1.85-4.94,1.54-7.62.64C59.34,87,49.25,83.64,39.18,80.25c-1.47-.5-3.76-.69-2.87-3,.75-2,2.51-.86,3.88-.41C49.81,80,59.47,83.05,69,86.4c3.64,1.28,6,.28,8.93-2.09,6.4-5.2,9-11.41,8.11-19.6-.52-4.43-.11-9,0-13.46,0-1.36.31-2.92,2.08-2.78,1.4.11,1.54,1.51,1.54,2.72Z" style="fill:#242424"/><path d="M124.6,89c-3.41-2.64-6.41-1.65-9.24,1-1.9,1.81-4,2.95-6.76,2a115.71,115.71,0,0,1,14-14c2.28,1.06,4.28,2.17,2.31,5.19C123.72,85,124.11,87,124.6,89Z" style="fill:#eaeaea"/><path d="M101.6,146c2.14-.53,2-3.29,4-4,1.34,2.47.21,5.17,1.5,8.39-2.62-1.06-3.25-3.63-5.5-3.39Z" style="fill:#eaeaea"/><path d="M101.61,109c3.07.34,7-3.27,9,2-3.13.88-6.08.11-9-1Z" style="fill:#eaeaea"/><path d="M106.6,94c1.75,3.53.92,4.57-4,5C103.13,96.68,104.73,95.24,106.6,94Z" style="fill:#ebebeb"/><path d="M127.6,100c.41-3.61,1-7.18,5-8.7,2.57-1,1.72-3.21,2.19-6.28,1.72,5.83,8.36,4.09,9.85,9-2.24,2.93-4.37.39-6.6,0-1.4-.26-3.47-1.59-4.26.52-.6,1.61-2.94,4.19-1.65,4.64,3.07,1.07,2,2.33,1.36,4.14-.17.47,1.42,1.37-.18,1.72a1.9,1.9,0,0,1-1.58-.83A8.47,8.47,0,0,0,127.6,100Z" style="fill:#eaeaea"/><path d="M165.6,67c-3-2.67-6,1.26-9,0,.32-.59.64-1.17.93-1.77,1.07-2.14,5.43-1.41,4.56-5.23,1.62,3.37,2.06-6,3.9-.37,1.32-2.19,3.87-2.3,5.8-3.45.86-.51,1.65-1.13,2.85-2,.94,1.69,1.28,3.9,4.39,4.3-3.53,1.6-7-.72-9.07,2.43,1.17,1.64,3.44-.15,4.74,2C171.33,63.72,166.5,61.45,165.6,67Z" style="fill:#eaeaea"/><path d="M122.34,124.54c-.83-.23-1.63-.42-2.41-.67a4.45,4.45,0,0,1-3.26-4c-.14-2.07,2.25-1.23,3.37-2a4.76,4.76,0,0,1,4.31-.36c2.3.82,5.39,1.24,5,4.47-.28,2.42-3.08,1.18-4.66,1.85A19.86,19.86,0,0,1,122.34,124.54Z" style="fill:#eaeaea"/><path d="M178.6,68c-.37,1.62-1,5-1.52,4.37-1.91-2.6-6.05,4.34-6.43-1.8-.11-1.71-1.8-1.16-2.77-.69-5.21,2.5-2.48-1.17-2.28-2.88,2.59,0,4.8-3,7.88-.66.71.54,1.23.81,1.54,1.68C176.2,71.37,177.41,69.5,178.6,68Z" style="fill:#eaeaea"/><path d="M142.6,74c-.09-1.46-5-3.75.94-4.31,1.51-.14.24-3.32,1-5,.55-1.15.4-2.75,1.93-3.29.72-.26,1.25.16,1.63.78.88,1.42.25,2.55-.75,3.55-1.42,1.41-1.72,1.45.74,2.39,2.85,1.08-1.61,1.31-1.15,2.76,1,1,2.42.68,3.64,1.07-2.41,3.49-2.41,3.49-7.29,2.07Z" style="fill:#eaeaea"/><path d="M164.13,42.4c2,2.84,1.48,5.92.75,8.18-.6,1.85-3.75,1.29-5.86,1.3a2.11,2.11,0,0,1-2.14-1.73c-.34-1.44,1.07-2.72,1.71-2.58C162.68,48.44,162.39,44.53,164.13,42.4Z" style="fill:#eaeaea"/><path d="M107.54,140.88c.41-2.46,4-4.95-.78-6.4-.91-.28-.55-2,.29-2.58,2.4-1.54,4.41,2.53,7,.67.36,1.8,1.06,3.42-1.51,4.58C110.9,137.86,110.45,140.51,107.54,140.88Z" style="fill:#eaeaea"/><path d="M112.87,155.11c-.86-2.86-.31-4.83-2.13-6.05-1.63-1.1-.79-2.17.35-3.11,1.32-1.08,2.8-2.12,4.37-.85,1.05.85,1.4,3,.56,3.54C114,150,114.36,152.35,112.87,155.11Z" style="fill:#eaeaea"/><path d="M149.18,97.94c-2.46.14-4.66.07-5.66,2.93-.32.91-1.69.9-2.68.48-.78-.32-1.54-.79-1.49-1.76.06-1.19,1-1.65,2-1.91C143.93,97,146.56,95.68,149.18,97.94Z" style="fill:#eaeaea"/><path d="M129.43,113.13c-3.92,1.08-6.2-2.5-10.16-1.38C124.46,107.84,125.09,107.94,129.43,113.13Z" style="fill:#eaeaea"/><path d="M131.38,86.11c.13.81-5.29,6.13-6,5.77-.47-.26-1.12-1.14-1-1.41,1.16-2.43,2.63-4.66,5.5-5.31A1.14,1.14,0,0,1,131.38,86.11Z" style="fill:#eaeaea"/><path d="M133.47,126.28c.2,1.65-.89,2-2.13,2.1-1.8.09-3-.89-2.85-2.67s.81-3.16,3.07-3C134.38,122.84,131.79,125.65,133.47,126.28Z" style="fill:#eaeaea"/><path d="M156.6,107a17.21,17.21,0,0,1-3,1.7c-1.63.55-4.13,1.85-4.8-.13-.75-2.22,2-1.82,3.49-2.19,1.29-.32,1.78-1.35,2.31-2.38C156.19,104.39,156.09,105.9,156.6,107Z" style="fill:#eaeaea"/><path d="M143.6,81c-1.1.18-2.12,1.55-3.2.69s-.4-2.17,0-3.21c.65-1.52,1.43-3,2.15-4.48,3.92-1.09,3.32,1.75,3.18,3.86C145.69,79.17,144.18,79.84,143.6,81Z" style="fill:#eaeaea"/><path d="M147.6,53c.9,1.36,1.83,2.7,2.68,4.08.5.82,1.22,1.78.3,2.66s-1.84,0-2.75-.22c-1.21-.31-1.38-1.09-1.07-2.24.38-1.4.57-2.85.84-4.28Z" style="fill:#eaeaea"/><path d="M151.4,101.51c1.67-.81,2.81-3.45,5-1.78,1.11.84.46,2-.34,3C153.83,105.44,153.06,101.73,151.4,101.51Z" style="fill:#eaeaea"/><path d="M143.27,126.13c-.07,1.36-.71,2.24-2.12,2.24-.77,0-2.11-.08-1.86-1,.3-1.15.87-2.64,2.45-2.81C142.75,124.44,143.15,125.22,143.27,126.13Z" style="fill:#eaeaea"/><path d="M122.26,141.19c-1.06,1.56,1.33,4.61-2,5.16-.5.09-1.58-.44-1.58-.7C118.68,143.4,120.71,142.55,122.26,141.19Z" style="fill:#eaeaea"/><path d="M174.87,47.15c2.41-.08,3.38-2.21,5.28-1.64.84.25.66,1.44.09,2.15C178.88,49.36,177.38,49.84,174.87,47.15Z" style="fill:#eaeaea"/><path d="M110.32,99c-1.06-2.59.4-3.92,2-5.06a1,1,0,0,1,1.49.76C114,97.1,111,97,110.32,99Z" style="fill:#eaeaea"/><path d="M109.29,116.51c-.31,1.09-.56,2.33-1.83,2-1.11-.25-1.06-1.53-1.13-2.49s.42-1.65,1.43-1.56C109,114.6,109.26,115.57,109.29,116.51Z" style="fill:#eaeaea"/><path d="M115.85,137.14c1.7,1.34,2.93,2.44,2.83,4.23,0,.72-1,.86-1.59.54C115.26,141,115.09,139.53,115.85,137.14Z" style="fill:#eaeaea"/><path d="M137.36,71.88c-.55-3.16-.46-4.89,1.4-5.95a1.34,1.34,0,0,1,1.25.34C140.84,68.53,138.42,69.16,137.36,71.88Z" style="fill:#eaeaea"/><path d="M127.82,140.4c0-1.78-.25-3.4,1.47-4.36a1,1,0,0,1,1.54.68C131,138.66,129.74,139.6,127.82,140.4Z" style="fill:#eaeaea"/><path d="M174.61,50.53c-2.13,2.6-3.66,3.29-5.6,2.56-.27-.1-.3-.83-.44-1.26Z" style="fill:#eaeaea"/><path d="M155.12,55.72c-2.42.52-3.51-.65-4.93-2.41C152.83,52.6,154.1,53.41,155.12,55.72Z" style="fill:#eaeaea"/><path d="M127.6,100l2.73,5.48C125.93,103.57,125.93,103.57,127.6,100Z" style="fill:#eaeaea"/><path d="M134,117.75a2.13,2.13,0,0,1-1.73,2.1.9.9,0,0,1-1.21-1c.17-1.13.42-2.41,1.88-2.49C133.69,116.27,134,117,134,117.75Z" style="fill:#eaeaea"/><path d="M168.92,37.35c.33-2.47,2-2.81,4.05-4.51C172.16,35.85,171.56,37.3,168.92,37.35Z" style="fill:#eaeaea"/><path d="M136.7,116.36c.7,2.67.05,4.22-.55,6.19C134.82,120.44,135.3,118.85,136.7,116.36Z" style="fill:#eaeaea"/><path d="M132.73,79.57c1.37,1.24,1.83,2.5,1.36,4a1.59,1.59,0,0,1-1.26,0C131.56,82.51,131.13,81.27,132.73,79.57Z" style="fill:#eaeaea"/><path d="M105.37,141.93c-3.1-2-2.91-3.64.47-5.57C106.19,138.56,103.79,140.31,105.37,141.93Z" style="fill:#eaeaea"/><path d="M126,131.49a1.34,1.34,0,0,1-1.48-1.57c.06-.56.51-1.48.88-1.54,1-.14,1.31.81,1.5,1.62A1.1,1.1,0,0,1,126,131.49Z" style="fill:#eaeaea"/><path d="M114.18,118.36c-.06.64,0,1.51-.82,1.51-1,0-1.27-.88-1.24-1.77,0-.66.16-1.48.93-1.51C114.23,116.54,114.1,117.57,114.18,118.36Z" style="fill:#eaeaea"/><path d="M122.36,134.93c2.5-.1,3,1,3.53,2.43C123.69,138.09,123.5,136.33,122.36,134.93Z" style="fill:#eaeaea"/><path d="M117.68,131.19c1.28,1.15,1.39,2.27.95,4A3.51,3.51,0,0,1,117.68,131.19Z" style="fill:#eaeaea"/><path d="M164.62,74.55c-.16,1.84-1.15,2.7-2.6,2.57-2.09-.18-3.11-2-3.34-3.67-.19-1.39,1.64-1.19,2.65-1.42C163.56,71.51,164,73.34,164.62,74.55Z" style="fill:#eaeaea"/><path d="M169.63,88c-1.81-.82-2.32-2-2-3.6,0-.17.92-.42,1.19-.26C170.13,84.93,170.25,86.16,169.63,88Z" style="fill:#eaeaea"/><path d="M170.23,77c2.61,1.63,2,3.32,2.87,5.28C170.52,81,170.39,79.46,170.23,77Z" style="fill:#eaeaea"/><path d="M143.6,81c.27-2.42.46-4.83-1-7,.75-1.74,2.07-1.81,3.59-1.19A3.7,3.7,0,0,0,150.6,72C151.43,78.08,149.54,80.51,143.6,81Z" style="fill:#ebebeb"/><path d="M149.74,86.64c1.31-1.62.15-4.7,2.95-5a2,2,0,0,1,2.17,2.19C154.31,86.18,152.09,86.52,149.74,86.64Z" style="fill:#ebebeb"/></g></g></g></svg>