<svg xmlns="http://www.w3.org/2000/svg" viewBox="0 0 222.89 169.19"><title>Asset 1</title><g id="Layer_2" data-name="Layer 2"><g id="Layer_1-2" data-name="Layer 1"><g id="_05lhl1.tif" data-name="05lhl1.tif"><path d="M65.7,0c-5.8,1.35-11,2.06-16.47,3.23a24.5,24.5,0,0,0-13.71,7.82C25.38,22.17,14.13,32.63,4.37,44,1.14,47.77-.33,51.3.06,55.34.42,59.23.42,63.18,1,67c3,2.6,4.23.25,5.51-1.93,1.1-2.64.63-5.43,2.57-8A4.11,4.11,0,0,0,10,53.46a3.76,3.76,0,0,1,1.17-2.3c7-6.73,12.85-14.1,19.64-20.95,4.49-4.54,8.88-9.15,13.34-13.71,3.4-3.49,7.74-5,12.6-6.56,15.28-4.88,25.36.3,34.79,7.3,1.66,1.23,2.25,2.34,0,4.08-1.72,1.32-2.33,3-1.49,4.64,1,1.89,3.09,2,5.42,1.78s4.81-.67,7.21-1.07c20.68-3.48,41.37-6.8,62-10.56,7.77-1.41,14-.65,19.63,3.07,6.77,4.49,13.86,8.69,21.08,12.72,5.62,3.14,8.74,7.33,8.79,13.31,0,1.46-.18,3.07,1.35,4.08,2.32,1.84,4.65,1.38,7-.84a1.18,1.18,0,0,0,.12-.89,35.34,35.34,0,0,0-.93-13.47c-.68-2.86-3.09-4.66-5.67-6.2-9.92-5.92-20-11.64-30-17.58-4.79-2.87-9.89-3.9-16.56-2.66-17.86,3.32-35.77,6-53.65,9.21-4,.71-7.09.2-10-1.62-7-4.43-13.58-10.17-21.31-13.12" style="fill:#212121"/><path d="M86.46,151.6c9.59,6.39,18.94,13.06,30.3,17.59l2.21-.38c2.86-3.43,0-6.61-2.09-6.81-6.48-.6-5.15-4.18-4.78-7.7-5.58-5.25-11.39-10.26-20.61-11.57C88.34,145.27,84.2,147.54,86.46,151.6Z" style="fill:#cacaca"/><path d="M110.21,154.79a8.24,8.24,0,0,1-.43,1.33c-1,1.92-5.21,4.12-.75,5.57,1.93.63,2.24,3.61,6,2.1.68-.27,3.53,2.7,3.92,5l3.33-.56,2.09-1.32c.61-2.69,4-3.33,5.81-5.09a6.13,6.13,0,0,0,.9-1.09c1-2.59,0-3.69-3.32-3.09-4.41.81-7.94,0-10.5-2.66C115.19,153.75,113,152.76,110.21,154.79Z" style="fill:#c9c9c9"/><path d="M11.33,106.74a16,16,0,0,0,9.42,5.68c1.61-.47,3.07-.76,2.3,1.32a56.07,56.07,0,0,0,10.62,6.42c4.56-.65,7.49,2,11.47,2.54,5.41.76,7.32-.24,8.46-4.77-.48-1.68-2.18-2.47-3.61-3.42-3.46-2.31-5.49-5.37-5.51-9.26,0-4.09-2.22-6.71-6-8.82-6.46-3.63-12.55-7.66-19-11.28-1.74-1-3.54-2.5-6.22-.4C4.58,89.13,2.44,95.06,6.7,103,11.29,101.72,11.81,103.81,11.33,106.74Z" style="fill:#cacaca"/><path d="M13.27,84.75C22,89.87,30.66,95,39.39,100.07c1,.6,1.89,1.13,1.76,2.35-.79,7.64,3.49,12.67,10.45,16.33,1.35,1.09,1.44,3,3.15,3.83.67.49,1.4.93,2.11,1.41a6.12,6.12,0,0,0,3.7,1c2.67-.94,6.25-.57,7.23-3.94.59-2.75-1.88-3.66-4-4.67-1.41-.67-3.19-.89-4.21-2a29.91,29.91,0,0,1-2.58-2,4.28,4.28,0,0,0-1.62-1.14c-2.69-1.27-4.64-3-4.76-5.84C47.92,99,49,91.76,46.69,85.37a3.06,3.06,0,0,0-3.27.15c-2.06,1.37-.61,3.64-2.69,5-3,.39-3.66-1.85-5.38-2.83C29,84.08,22.91,80.26,16.72,76.52c-2.38-1.45-4.44-3.08-4.93-5.72-.65-2.74-.56-5.82-4.08-7.2a3,3,0,0,0-2.53.77c-1.15,1-2.61-3.71-4.28-3-.92,2.56,1,11.08,1.75,13.34C3,80.37,9.42,81.63,13.27,84.75Z" style="fill:#212121"/><path d="M86.46,151.6c1.23-1.07.78-2.8,3.94-3.24s-.28-3.17,1.08-4.85c1-1.56.39-2.69-.91-3.49-6.67-4.06-13-8.44-19.62-12.58a4.79,4.79,0,0,0-2.47-.62,19,19,0,0,1-4.26.05c-5.71-1-8.47,1.3-8.28,6.57Q70.57,143.16,86.46,151.6Z" style="fill:#cacaca"/><path d="M55.94,133.44a38.36,38.36,0,0,0,3.64-3.83c1.44-2,2.84-2.23,4.24-.71s2.59,1.82,4.16-.28c1.25-5.09-3.72-4.35-7.24-5l-2.26-1.36a2.42,2.42,0,0,0-2.42-1.46l-4.46-2.07c-.09,1.16-.14,2.21-2.24,1.75-3.2-.72-6.84-.84-9.63-2.06-3-1.3-4.45-.49-6.06,1.72A246.87,246.87,0,0,0,55.94,133.44Z" style="fill:#c9c9c9"/><path d="M11.33,106.74a21.91,21.91,0,0,0,2.28-1.43c1.49-1.2,4.57-2,2.76-4.23-1.63-2-3.93-2.67-6.86-.52-1,.74-1.87,1.61-2.8,2.42C7.44,104.89,9.3,105.89,11.33,106.74Z" style="fill:#cacaca"/><path d="M23.05,113.74c.77-.49,1.53-1,2.32-1.46,1-.62,3,1.41,3.33-1.1A2,2,0,0,0,27.34,109a4.43,4.43,0,0,0-4.18.68,13.06,13.06,0,0,0-2.41,2.71Z" style="fill:#c9c9c9"/><path d="M222.5,48.45c-2.27.38-4.53.71-5.71-1.22-3.71-.32-5.41-2-5.35-5.17.08-4.24-3.1-6.9-7.56-8.92a50.38,50.38,0,0,1-11.46-6.9c-4.84-4-10.07-4.75-16.37-1.95-11.51,5.13-23.05,10.2-34.51,15.42A12.74,12.74,0,0,0,137.71,42c-1.38,1.37-1.91,2.81-1.06,4.26.74,1.26,2.09,1.78,3.92,1.64,3.51-.28,6.44-2.43,9.74-3.31a70.55,70.55,0,0,0,20.35-8.76c7-4.58,12.52-5.66,17.33-2.3a8.68,8.68,0,0,0,2.09,1.22C201.38,38.78,203,47.32,202.52,57c-.19,3.59-2.58,5.71-6.32,7.38q-15.7,7-31.43,14c-11,4.91-22,9.78-33,14.73a29,29,0,0,0-5,2.54c-1.85,1.33-2.39,3-1.64,4.6s2.51,2.19,4.8,1.76a26.23,26.23,0,0,0,5.8-2.15c17.39-7.68,34.7-15.49,52.1-23.13,2.86-1.26,6.26-3.81,8.76-.63,2.29,2.92.46,8-3.79,10.14-6.83,3.51-14,6.38-21.05,9.54-12.18,5.48-24.4,10.87-36.59,16.32-1.72.77-3.45,1.52-5.1,2.39-2.5,1.3-4.54,2.94-3.56,5.34,1.08,2.67,4,2.21,6.79,1.44a19,19,0,0,0,2.65-.95c15.52-6.85,31-13.83,46.5-20.66,2.36-1,4.7-2.54,7.37-1.74,2.13,1.49,1.52,3.43.38,5.46-1.78,2.36-4.66,3.43-7.38,4.65-16.09,7.18-32.22,14.28-48.23,21.59-3,1.38-7.88,2.63-6,6.3s6.17,1.4,9.53,0c12.74-5.5,25.34-11.28,38-16.87,2.18-1,4.31-2.36,6.8-2a1.11,1.11,0,0,1,.42,1.69c-1.29,2-3.6,2.89-5.79,3.89-5.9,2.69-11.88,5.23-17.75,8-2,.93-4.18,1.69-5.29,3.59,0,2.36-1.63,5.16,1.52,6.68a8,8,0,0,0,5.39-.84c8-4.28,16.94-6.84,25.06-10.95,4.73-2.39,8.38-5.35,10.31-9.59,1.25-2.58-1.54-4.55-.35-7.14.63-1.58,2.46-2.38,3.69-3.57a3.33,3.33,0,0,0,.73-4.33c-.15-3.12-.38-6.23-.41-9.37,0-1.31-.26-2.88,1.13-4,6.73-5.21,5.59-11,4.89-16.71-.38-3.14,1.44-5.65,3-8.66,3.07-5.86,10.38-11,12.08-16.23C222.54,46.64,222.38,49.17,222.5,48.45Z" style="fill:#212121"/><path d="M198.71,108.38l-4.1,2.55c-1.53,2.84.73,5.41-.63,8.24-.24,3.1-2.76,5.25-5.8,6.66-10.57,4.87-21.05,9.93-32,14.07a2.62,2.62,0,0,0-2.72,1.25c-1.43,1.95,2.45,3,.21,5.28-1.93,2-3.55,4-6.85,4.16-2.8,2.06-4.28,4.2-1.76,6.57a81.8,81.8,0,0,0,16.17-6.45c12.6-6.21,25.51-11.84,38.47-17.37,2.24-1,4.55-1.86,6.28-3.53,2-2.37,5.62-4.85.25-6.87,3.91-1.55,5.83-4,5.24-7.17s-2.52-4.89-6.8-4.37c-1.7.21-1.85-.89-2.35-1.78C201.67,108.45,200.89,107.28,198.71,108.38Z" style="fill:#cacaca"/><path d="M145.07,157.16l2.94-5.88c6.13-3.32,6.39-6.4.78-9-2.69-.26-5.11.92-7.39,2.08-6,3-12.07,5.78-18,8.86-3,3.52-2.58,6.14.78,5.25,5.23-1.39,6.88,1.27,9.65,2.92a7.88,7.88,0,0,0,1.49.32A37.32,37.32,0,0,0,145.07,157.16Z" style="fill:#cacaca"/><path d="M198.71,108.38c1.68.59,1.71,1.6.55,2.88-3.4,3.75-.23,3.52,2.76,3.57,2.26,0,5.87-3.3,6.56.63.58,3.27-1.75,5.7-5.73,7.09-1.17.41-2.36.77-5.21,1.7,5.81.22,11.2-.3,8.35,5.56,9.22-4.62,11.24-15.34,3.74-20.32-2.78-1.84-5.87-3.38-8.82-5.06Z" style="fill:#cacaca"/><path d="M129.61,160.7c-1.51.62-3.07,1.18-4.55,1.87-3.18,1.48-3.86,3-.67,4.36a24.37,24.37,0,0,0,7.8-3.88A2.72,2.72,0,0,0,129.61,160.7Z" style="fill:#cacaca"/><path d="M129.61,160.7a2.73,2.73,0,0,0,2.58,2.35l3.14-1.36c0-.35-.08-.69-.11-1A5.82,5.82,0,0,0,129.61,160.7Z" style="fill:#c9c9c9"/><path d="M155.85,134.71c8.8-3.93,17.57-7.92,26.42-11.76a12.16,12.16,0,0,0,5.14-3.63c.67-2,.05-3.78,0-5.66,0-1.46-.93-2-2.82-1.23Q159.12,124,133.63,135.54c-1.29.58-3.35,1.17-3.88-.2-.65-1.7,1.5-1.86,2.95-2.5,19-8.54,38-17.19,57.09-25.69,2-.88,3.56-1.7,4.41-3.4-.07-3.89.83-8-1.39-11.42q-30,13.5-60.12,27c-1.45.65-3.58,1.79-4.41.28-1.07-1.92,1.63-2.58,3.17-3.27C152.19,107,172.9,97.7,193.76,88.65c4.94-2.15,6.88-4.34,6.44-8.72-1.08-10.82-.83-10.86-13.33-5.28q-26.75,12-53.52,23.89c-1.37.61-2.75,1.21-4.17,1.69a1.93,1.93,0,0,1-2.37-.45c-.6-1,.09-1.76,1.16-2.32,1.49-.78,3-1.47,4.58-2.16,22.47-10,44.9-20.11,67.45-30,4.54-2,5.73-4.06,6.05-8,1-12.22-4-20.72-16.44-26.31-5.37-2.4-9.13-3.14-15.27-.11-10.23,5.05-20.88,9.4-31.36,14-1.64.73-3.78,2.28-4.83.52s1.49-2.5,3.12-3.23c12.19-5.43,24.4-10.81,36.55-16.29,3.89-1.75,7.24-1.66,10.27.14,5.55,3.3,11,6.68,16.57,10,4.43,2.61,4.15,6.92,4.61,11,.2,1.71-1.26,4.71,1.64,4.79a6.3,6.3,0,0,0,5.88-4.64c1.09-9.77-5.29-15.16-14.09-19.59-7.58-3.83-14.49-8.46-21.55-12.88-3.21-2-6.65-2.53-11.05-1.77-24,4.16-48,8.15-71.95,12.2-1.48.25-3,.52-4.43.68-1.19.14-2.25-.14-2.29-1.22s1-1.74,2.13-2c2.52-.5,5.06-.88,8-1.38C93,15.87,85.11,10.67,76.89,5.8c-2.27-1.35-5.65-.34-8.61.2-25,4.53-16.92.44-33.63,17.22-2.12,2.13-4.06,4.38-6.08,6.57-1.33,2-.89,3.14,1.26,4.34,9,5,17.2,10.82,26.38,15.63a9.27,9.27,0,0,0,1.16.76c5.27,4,12,6.45,17,10.79,3.22,2.82,7.56,4.59,11.61,6.6,4.43,4.25,11.35,5.91,16.22,9.71A17.91,17.91,0,0,0,105,79.37c1.87.82,4,1.45,3.61,3.83.34,2.77,1.31,5.37,1.68,8.14.06.52.11,1,.18,1.53-1.09,10.49,1.77,20.29,2.46,30.46,0,.56.07,1.13.09,1.69-.48,8.51-.65,17,2,24.94,1.17,2.5,3.59,2.87,6.61,1.65,10.46-4.21,20.68-8.88,30.84-13.66A7.9,7.9,0,0,0,155.85,134.71Z" style="fill:#fefefe"/><path d="M57.92,49.14Q45.68,41.55,33.43,34c-1.89-1.17-4.13-2.08-4.86-4.17-6.59,5.62-10.81,12.72-18,18a4.61,4.61,0,0,0-1.94,3.31c2.09,2.65,1.89,5.27-1.59,7.85.07,1.48-.52,3.09.45,4.4,4.38,1.21,7.85,4.21,13.06,3.7,2.81-.28,1.22,1.45,1.85,2.11,1.72,2.81,4.62,3,7.53.62A18.1,18.1,0,0,1,38.91,66,3.63,3.63,0,0,0,40,65c-.37-3.5-2.74-5.37-9-7.17C36.67,59.54,41.55,62.57,47.5,64a4.43,4.43,0,0,0,1.33.44c3.34-.52,4.81,1.3,6.43,2.94,6.39-.14,6.69-.51,6.13-6.22a11.13,11.13,0,0,0,1.74,6c.26,1.78,3.07,3.21.09,5.42a6.82,6.82,0,0,0-1.51,2c-1.32,3.67-2.81,6.85-8.56,5.09-1.36-.42-2.86.8-3.33,2.13s-1.2,2.66.09,3.8c1.87,1.64,7,1.93,9.57.39,1.46-.86,2.86-1.8,4.49-.87a16.37,16.37,0,0,0,6.08-2.35c3.5-2.49,7.2-2.07,9.19.84,1,1.38,1.61,3,3.65,3.52a1.36,1.36,0,0,1,.72,1.18A1.32,1.32,0,0,0,83,87.37a2.68,2.68,0,0,0-3.35.87c1.87-2.71.16-5.07-2.31-6.27a7.08,7.08,0,0,0-8,1.29,7.78,7.78,0,0,1-6,1.76c-.67-.15-1.55-.37-2,.09-3.58,3.27-7,2.65-10.56,1.26-2-.77-3.73-.84-4.22,1.73.22,3.32.43,6.62.7,9.92.32,1.34,1.38,1.74,3,1.37,2.28-.57,2.54-2.15,3-3.58,0-.58.06.23.08-.37.05.23-.14.42-.26.65-.11,1.17.4,2.52-1.92,2.91-3.06,2.13-1.94,3.78.52,4.42C54,104,55.31,105.14,57,106c3.31-1.08,6.49.74,9.84-.9l-.34.77c-1.23,1.68-5.43-1.89-6,2.11,2.59,2.74-2.9,4.53-2.46,7l8.34,5.64c.4,2.27,1.85,3.84,4,5.14,13.09,7.82,26,15.82,39.23,23.51,1.85,1.08,3.66,3.4,6.93.78q-.9-12.84-1.81-25.69c-2.54-.47-5.11-.91-4.55-3.85l.34-.25a3.21,3.21,0,0,0-.65.57c.65,1.94,1.26,3.92,4.79,2.64q-1.11-16.07-2.24-32.12c-3.2.53-6.52.33-9.51,2.19C97.35,95,93.86,93,94.32,88.81c.23-2.08.23-2.08-3.81-5.88,2.42,2,4.06,3.86,3.81,7.44-.21,3.08,3.91,4.33,8.13,3.8,2.57-3.11,7.09-1.24,9.93-3.67-.47-2.94.35-6.2-1.72-8.75-2.12-.78-4.59-1.25-4.75-3.7l-2.34-1.41c-3.19,0-5.39-1.62-7.89-2.69-5.66-2.41-6-2.37-9.62,2.59a2.44,2.44,0,0,1-1.69,1,2.2,2.2,0,0,0,1.34-.68c4-3.48,1.54-6.78,1.47-10.14A328.79,328.79,0,0,0,57.92,49.14c-.64.63-.4,1.36-.69,2C57.52,50.5,57.28,49.77,57.92,49.14Z" style="fill:#ebebeb"/><path d="M8.3,58.43c1.6,0,3,.77,4.72.16,2.64-.93,2.72-3.1,3.34-4.66.71-1.78-1.92-.8-3-1.19-1.56-.55-3.13-1.08-4.69-1.62L7.61,53.06C7.34,55,6.63,56.94,8.3,58.43Z" style="fill:#eaeaea"/><path d="M7.21,64c-.16-2.36-.33-4.72-.49-7.08-2.44,2.44-.86,5-1.54,7.43Z" style="fill:#1f1f1f"/><path d="M116.56,150.09c-12.51-6.32-23.68-14-35.64-20.94-4.86-2.81-9.69-5.66-14.54-8.49-1.16,2.07-3.89,1.79-5.64,3l7.24,5,23.5,14.89a179.12,179.12,0,0,1,18.73,11.28l5.9,1.75c3,1.45,5.79-.19,8.59-1.46,7.94-3.7,15.39-8.28,23.79-11.16,2-.57,4.6-.14,5.6-2.59l2.1-1.43c1.08-1.93,1.91-3.81-.34-5.19-11.22,3.8-21.57,9.39-32.44,13.9C121.18,149.54,119,150.86,116.56,150.09Z" style="fill:#212121"/><path d="M124.7,155.08l-8.59,1.46c-.44,2.43-.44,2.43,2,2.33,1.08,0,1.08,0,3.1,3,1.44.35.06-4,3-1.44,1.28,1.13,2.46-.14,3.73-.93,2.12-1.31,2,0,1.72,1.15l5.61,0c-3.06-1.88-5.54-4.2-10.57-3.53C121,157.61,124.62,155.82,124.7,155.08Z" style="fill:#cacaca"/><path d="M14.35,97.28c2.62.53,5.45.53,6-2,.59-2.81-2-2.11-4.24-1.14C16.81,95.43,14.54,96.12,14.35,97.28Z" style="fill:#c9c9c9"/><path d="M6.9,56.35c.11,3,0,13,2.11,16.47a8,8,0,0,0,3.78,3.86L43,94.76c1.37-1.59.18-3,.39-4.53C42.93,87.74,40.28,85,47,84.15c3.24-.39,3.22-4.06,3.52-5.86.41-2.41.6-4,3.8-4.8a2.49,2.49,0,0,0,2.09-2.59c-.36-2.52-1.68-4.73-2-7.38-.22-2.21-3.69-.09-5.65-.2-2.15-.24-3.85-1.24-6.4-1S39.37,63.49,38.85,65c-3.71,1.62-7.57,2.91-11,5.19-3.67,2.47-2-1.5-3.38-1.86-.65-1.13.78-1.54,1.41-2.26a1.31,1.31,0,0,0-.17-2c-1.71-1.33-1.28.86-1.85,1-2.59.47-6.56-10.76-8-12.64C13.51,49.23,7.9,44.35,6.9,56.35Z" style="fill:#ebebeb"/><path d="M48.82,63.32c.75,2.06,4.89-.44,4.32.75-1.44,3,.21,5,.62,7.39.19,1.15-2.71,1.31-4.29,1.67-3.4.78-4.68,1.43-1.94,4,1.56,1.47-.3,4.88-2.46,5.93-5.85,2.83-6,2.56-2.3,6.53,1-1,.16-2.14.82-3.18a1.86,1.86,0,0,1,2.31-.76c.86.17.29,1.37,1.38,1.38.53,0,1.29-.14,1.55.09,5.09,4.66,10-.06,15-2-1.73-1.49-3.59-1.13-5.77.23-2.73,1.69-6.64.77-6.64-1.58,0-.92-.08-2.87,2.27-2.26S58,83.62,60.86,81c2.08-1.93,2.19-3.79,2.45-5.83a7.12,7.12,0,0,1,.79-1.75c0-.2-.07-.4-.09-.6-3.45-1.13-4.92-4-7.85-5.66l-.38-.46C55.61,62.93,54.41,60.46,48.82,63.32Z" style="fill:#eaeaea"/><path d="M62,108c3.37-1.79,2.85,2.81,6.57,1,1.53-1.59-.38-4.61,2.12-7.09.33-.33.19-1.23-.12-1.65-.59-.78-1.53-.14-2.42.11-2.78.78-2.65,2.75-3.28,5.24-2.12-5.94-4.78-3.8-7.56-.38-1.62-.49-2.75-2.57-5.09-.8-2,1.49-.81,3-.38,4.55a8.47,8.47,0,0,0,2.63,4l1.13.68C60.63,113.91,61.78,111.31,62,108Z" style="fill:#eaeaea"/><path d="M54.51,113c-.69-2.3,2.34-5.4-1.36-6.91,1.55-1.47,2.93-.38,4.2-.85-1-1.81-1.57-3.93-5.1-3.74-1.51.09-1.21-1.4-.93-2.46l-3.23-.36c-1.16,3.16-.29,6,.27,9A10.54,10.54,0,0,0,54.51,113Z" style="fill:#eaeaea"/><path d="M62,108c-3.92.54-2.73,4.9-6.4,5.62L58,115a4.24,4.24,0,0,1,1-.55C66.05,112.59,66.05,112.59,62,108Z" style="fill:#eaeaea"/><path d="M48.36,107.59l-.27-9-.81-11.59L45.9,85.67C46.91,92.94,45.89,100.61,48.36,107.59Z" style="fill:#212121"/><path d="M56.06,120.82l2.42,1.46c.47-1.19,2.29-2.7.22-3.41C57.19,118.35,57,120.15,56.06,120.82Z" style="fill:#212121"/><path d="M43.59,86.43l-.82,3.18L43,94.76C45.43,91.81,43.33,89.21,43.59,86.43Z" style="fill:#212121"/><path d="M192.81,92.33q.7,5.72,1.39,11.42C195.1,99.67,195.65,95.66,192.81,92.33Z" style="fill:#242424"/><path d="M184.57,112.43c5,.74,1.9,4.59,2.84,6.89,1.05-1.93.81-3.79.48-5.63C187.61,112.17,186.68,111.41,184.57,112.43Z" style="fill:#242424"/><path d="M194,119.17c1.61-2.85.07-5.47.63-8.24C192.85,113.79,194,116.43,194,119.17Z" style="fill:#242424"/><path d="M154.09,141.33a16.57,16.57,0,0,0-5.6,2.59c4,2.12,1,4.8-.48,7.36,2.51.85,5.79,4.34,6.21-1.93a1.1,1.1,0,0,1,.5-.73C160.41,145.38,160.28,143.82,154.09,141.33Z" style="fill:#c9c9c9"/><path d="M165.8,142.35c1.46-.62,3.62-.61,3.45-2.37,0-.37-1-.86-1.59-.79C165.1,139.48,165.89,141.05,165.8,142.35Z" style="fill:#c9c9c9"/><path d="M122.74,46.94a18.56,18.56,0,0,1,.23,4c-1.49,10.18,7.44,13.73,15.43,17.76,2.48,1.26,5.58.45,8.48-.85,11-4.92,21.92-9.78,32.87-14.68,1.6-.72,4.12-1.32,3-3.24-1-1.63-2.83-.3-4.32.36-10.46,4.63-21,9.17-31.35,14-4,1.82-6.64,1.37-10-.2-7.41-3.44-10.74-8.48-10.19-16,.29-4.05-.45-8-.8-12-.11-1.21-.53-2.55-2.48-2.09C122,34.34,122,35.61,122,36.7Q122.39,41.82,122.74,46.94Z" style="fill:#242424"/><path d="M85.65,77c3.62-3,7-2.67,10.3-.8a7.68,7.68,0,0,0,7.62.48,105,105,0,0,0-16.39-9.87c-2.46,1.37-4.61,2.74-2.23,5.07C86.37,73.23,86.08,75.11,85.65,77Z" style="fill:#eaeaea"/><path d="M114.68,123.51c-2.4-.08-2.46-2.56-4.68-2.82-1.32,2.44.1,4.65-1.13,7.76,2.83-1.44,3.38-3.85,5.88-4Z" style="fill:#eaeaea"/><path d="M112.38,90.5c-3.39.88-8-1.61-9.85,3.47,3.53.2,6.75-1,9.91-2.58Z" style="fill:#eaeaea"/><path d="M105.91,78.05c-1.72,3.47-.73,4.24,4.75,3.7C109.92,79.8,108.05,78.81,105.91,78.05Z" style="fill:#ebebeb"/><path d="M83,87.33c-.68-3.14-1.57-6.22-6-6.83-2.9-.4-2.09-2.54-2.81-5.2-1.54,5.53-9,5.22-10.36,9.86,2.67,2.2,4.87-.47,7.32-1.27,1.53-.5,3.74-2.07,4.74-.33.77,1.32,3.53,3.19,2.13,3.83-3.34,1.52-2.12,2.46-1.26,4,.23.38-1.49,1.48.32,1.5a2.62,2.62,0,0,0,1.7-1A9.9,9.9,0,0,1,83,87.33Z" style="fill:#eaeaea"/><path d="M38.85,65c3.16-2.94,6.73,0,10-1.68-.38-.47-.77-.93-1.14-1.4-1.31-1.71-6.1-.25-5.37-3.82-1.59,3.31-2.66-5-4.34.4-1.6-1.71-4.43-1.33-6.65-2-1-.29-1.89-.69-3.28-1.2C27.11,57,26.87,59,23.44,60c4,.77,7.74-2,10.2.47-1.19,1.68-3.81.51-5.12,2.71C32.3,63.15,37.51,60.22,38.85,65Z" style="fill:#eaeaea"/><path d="M90.37,108.24c.91-.36,1.78-.68,2.63-1,2.14-.91,3.35-2.55,3.37-4.17,0-1.87-2.58-.68-3.87-1.14a6.46,6.46,0,0,0-4.79.48c-2.5,1.16-5.89,2.12-5.29,4.93.45,2.11,3.48.48,5.27.78A23.22,23.22,0,0,0,90.37,108.24Z" style="fill:#eaeaea"/><path d="M24.51,68.33c.51,1.37,1.48,4.26,2,3.61,2-2.68,7,2.74,7-2.81,0-1.55,1.92-1.37,3-1.14,5.93,1.26,2.68-1.5,2.34-3-2.87.5-5.5-1.74-8.77.89-.75.61-1.31,1-1.6,1.78C27.39,70.89,25.92,69.44,24.51,68.33Z" style="fill:#eaeaea"/><path d="M64.77,67c0-1.33,5.27-4.28-1.31-3.67-1.68.15-.47-2.92-1.43-4.23-.68-.93-.62-2.37-2.34-2.57a1.77,1.77,0,0,0-1.76,1c-.89,1.44-.13,2.33,1,3,1.66,1,2,1-.67,2.27-3.09,1.5,1.87.87,1.45,2.25-1,1.06-2.63,1.06-4,1.64,2.9,2.66,2.9,2.66,8.22.48Z" style="fill:#eaeaea"/><path d="M39,42.78a6.69,6.69,0,0,0-.33,7.44c.78,1.53,4.24.45,6.57.06a2.55,2.55,0,0,0,2.26-1.94c.3-1.35-1.35-2.23-2.05-2C40.94,47.9,41,44.36,39,42.78Z" style="fill:#eaeaea"/><path d="M107.79,120.05c-.61-2.12-4.7-3.68.46-5.86,1-.41.49-1.92-.47-2.24C105,111,103,115,100.1,113.85c-.29,1.67-1,3.24,2,3.79C103.88,118,104.54,120.26,107.79,120.05Z" style="fill:#eaeaea"/><path d="M102.77,133.74c.78-2.71,0-4.37,2-5.8,1.74-1.28.75-2.08-.58-2.7-1.53-.72-3.23-1.37-4.89.05-1.11.95-1.37,2.93-.4,3.27C101.22,129.38,100.94,131.56,102.77,133.74Z" style="fill:#eaeaea"/><path d="M59,89.53c2.73-.34,5.17-.81,6.45,1.55.41.76,1.92.49,3-.06.85-.44,1.66-1,1.54-1.86-.14-1-1.25-1.27-2.32-1.33C64.73,87.68,61.74,87,59,89.53Z" style="fill:#eaeaea"/><path d="M81.81,99.39c4.41.23,6.7-3.39,11.17-3.13C87,93.74,86.29,94,81.81,99.39Z" style="fill:#eaeaea"/><path d="M78,75.65c-.1.75,6.24,4.48,7,4,.51-.32,1.18-1.23,1-1.45-1.44-2-3.21-3.66-6.43-3.7A1.43,1.43,0,0,0,78,75.65Z" style="fill:#eaeaea"/><path d="M78.14,111.87c-.11,1.52,1.12,1.66,2.49,1.48,2-.26,3.23-1.35,3-2.91s-1.1-2.67-3.59-2.13C76.92,109,80,111,78.14,111.87Z" style="fill:#eaeaea"/><path d="M51.32,99a19.06,19.06,0,0,0,3.42,1c1.84.18,4.71.88,5.32-1,.69-2.12-2.37-1.24-4-1.3A3.37,3.37,0,0,1,53.34,96C51.61,96.59,51.82,97.92,51.32,99Z" style="fill:#eaeaea"/><path d="M64.1,73.38c1.23,0,2.44,1,3.59,0s.31-2-.25-2.86c-.82-1.24-1.77-2.4-2.67-3.59-4.41-.24-3.56,2.18-3.28,4C61.67,72.14,63.38,72.45,64.1,73.38Z" style="fill:#eaeaea"/><path d="M57.92,49.14c-.9,1.38-1.85,2.75-2.71,4.15-.5.82-1.24,1.82-.17,2.42s2-.33,3-.7c1.33-.51,1.47-1.23,1.06-2.2-.51-1.18-.81-2.44-1.21-3.67Z" style="fill:#eaeaea"/><path d="M56.74,93.13c-1.9-.41-3.32-2.55-5.66-.65-1.17,1-.38,1.84.57,2.57C54.29,97.09,54.92,93.64,56.74,93.13Z" style="fill:#eaeaea"/><path d="M67.28,113.57c.16,1.2.92,1.87,2.49,1.61.86-.14,2.34-.47,2-1.26a2.76,2.76,0,0,0-2.89-2A1.65,1.65,0,0,0,67.28,113.57Z" style="fill:#eaeaea"/><path d="M91.5,123.08c1.27,1.19-1.19,4.36,2.51,4.23.56,0,1.73-.69,1.71-.92C95.61,124.38,93.31,124,91.5,123.08Z" style="fill:#eaeaea"/><path d="M27.34,49c-2.67.39-3.88-1.33-5.95-.47-.91.38-.64,1.41,0,1.94C23,51.75,24.74,51.9,27.34,49Z" style="fill:#eaeaea"/><path d="M102.1,83.2c1-2.51-.69-3.42-2.53-4.14A1.24,1.24,0,0,0,98,80C98,82.19,101.28,81.58,102.1,83.2Z" style="fill:#eaeaea"/><path d="M104.33,98.64c.42.91.76,2,2.16,1.47,1.21-.43,1.07-1.57,1.09-2.44s-.56-1.39-1.68-1.12A1.85,1.85,0,0,0,104.33,98.64Z" style="fill:#eaeaea"/><path d="M98.35,118.27c-1.8,1.51-3.09,2.72-2.87,4.3.09.64,1.11.58,1.79.19C99.24,121.61,99.34,120.26,98.35,118.27Z" style="fill:#eaeaea"/><path d="M70.45,64.07c.42-2.92.21-4.44-1.92-5a1.89,1.89,0,0,0-1.37.53C66.39,61.74,69.1,61.84,70.45,64.07Z" style="fill:#eaeaea"/><path d="M85.28,123.41c-.13-1.58.08-3.08-1.89-3.61-.71-.19-1.63.24-1.66.89C81.63,122.46,83.12,123.06,85.28,123.41Z" style="fill:#eaeaea"/><path d="M27.84,52c2.53,1.93,4.27,2.25,6.37,1.24.29-.14.28-.79.41-1.21Z" style="fill:#eaeaea"/><path d="M49.76,53c2.72,0,3.85-1.24,5.32-3.07C52.11,49.77,50.75,50.73,49.76,53Z" style="fill:#eaeaea"/><path d="M83,87.33c-.84,1.71-1.69,3.41-2.68,5.4C85.09,90.2,85.09,90.2,83,87.33Z" style="fill:#eaeaea"/><path d="M77,104.37c.14,1,.86,1.51,2,1.54.87,0,1.45-.49,1.28-1.15-.25-1-.62-2.08-2.24-1.88C77.29,103,77,103.72,77,104.37Z" style="fill:#eaeaea"/><path d="M33.32,39.17C32.81,37,31,37,28.57,35.91,29.64,38.44,30.4,39.62,33.32,39.17Z" style="fill:#eaeaea"/><path d="M74,103.63c-.61,2.51.21,3.77,1,5.41C76.28,106.92,75.66,105.59,74,103.63Z" style="fill:#eaeaea"/><path d="M76.05,70.07c-1.44,1.36-1.87,2.57-1.25,3.81a2.15,2.15,0,0,0,1.39-.23C77.53,72.47,77.93,71.28,76.05,70.07Z" style="fill:#eaeaea"/><path d="M110.26,120.58c3.31-2.33,3-3.79-.87-4.88C109.14,117.72,111.91,118.84,110.26,120.58Z" style="fill:#eaeaea"/><path d="M86.8,115.12c1.14-.21,1.71-.86,1.54-1.68-.1-.49-.65-1.23-1.06-1.21-1.12.06-1.41,1-1.57,1.72S85.89,115.1,86.8,115.12Z" style="fill:#eaeaea"/><path d="M99,101.2c.1.56,0,1.36,1,1.2a1.45,1.45,0,0,0,1.26-1.81c-.07-.59-.26-1.3-1.12-1.18C98.86,99.58,99.07,100.49,99,101.2Z" style="fill:#eaeaea"/><path d="M91,117.51c-2.78.38-3.32,1.46-3.77,2.83C89.73,120.58,89.82,119,91,117.51Z" style="fill:#eaeaea"/><path d="M96,113.3a2.85,2.85,0,0,0-.81,3.71C96.47,115.65,96.54,114.63,96,113.3Z" style="fill:#eaeaea"/><path d="M40.41,71.55c.3,1.61,1.45,2.2,3,1.81a4.4,4.4,0,0,0,3.48-3.9c.12-1.27-1.9-.75-3-.77C41.4,68.65,41.08,70.35,40.41,71.55Z" style="fill:#eaeaea"/><path d="M35.7,84.49c2-1.07,2.44-2.25,2-3.58,0-.15-1-.21-1.33,0C35,81.85,34.9,83,35.7,84.49Z" style="fill:#eaeaea"/><path d="M34.35,74.77c-2.79,1.94-2,3.32-2.85,5.24C34.28,78.38,34.32,77,34.35,74.77Z" style="fill:#eaeaea"/><path d="M64.1,73.38c-.45-2.11-.81-4.22.67-6.43-.94-1.42-2.41-1.23-4-.39a4.79,4.79,0,0,1-4.94.1C55.25,72.24,57.49,74.05,64.1,73.38Z" style="fill:#ebebeb"/><path d="M57.65,79.56c-1.55-1.21-.46-4.17-3.58-3.94-1.29.1-2.65,1.36-2.27,2.36C52.56,80,55,79.89,57.65,79.56Z" style="fill:#ebebeb"/></g></g></g></svg>