<svg xmlns="http://www.w3.org/2000/svg" viewBox="0 0 238.52 238.54"><title>scissor-left</title><g id="Layer_2" data-name="Layer 2"><g id="Layer_1-2" data-name="Layer 1"><g id="vP45Zf.tif"><path d="M238.2,104.7c-.19-4.28-2.81-6.46-6.6-7.73-16-5.33-32-10.82-48-16-3.7-1.2-5.59-2.81-5.13-6.92.93-8.28-2.5-14.53-8.64-20.07-7.79-7-15-14.66-22.28-22.23a14.8,14.8,0,0,0-11.95-4.85c-9.32.25-18.65-.05-28-.06a11.56,11.56,0,0,1-8.86-3.77C93.79,17.91,88.52,13,83.51,7.93A51.17,51.17,0,0,0,74,0H46a23.1,23.1,0,0,0-7.71,5.33C28.14,15.44,18.14,25.71,7.9,35.72c-4.8,4.7-7.56,10-7,16.88A94.64,94.64,0,0,1,1,65.09a16.55,16.55,0,0,0,5.25,13.5c8.21,8,16.2,16.26,24.41,24.29,2.79,2.72,4.49,5.76,4.1,9.72-.56,5.6,1.76,10.07,5.54,13.88q25.47,25.7,51.16,51.18c4.93,4.9,10.48,6.46,17.31,4,9.38-3.39,19-6.26,28.36-9.6,3.66-1.3,6.18-.67,8.87,2.11,8.21,8.48,16.73,16.67,25,25.13,5.32,5.45,11.09,7.05,18.52,4.48,16.75-5.8,16.82-5.61,16.79-23.53,0-.67,0-1.33,0-2-.19-5-3.66-8.25-6.58-11.71-2.11-2.5-4.58-4.67-6.87-7-4.58-4.36-8.87-9-13.53-13.32-1.95-1.79-2.32-3.12-.78-5.38a11.08,11.08,0,0,0,1.43-5.76,7.91,7.91,0,0,0-.18-1.37c-.07-2.51-1.73-5.15.68-7.41,8.79,3.19,17.67,6,26.51,8.94a22.26,22.26,0,0,0,14.22,0c3.16-1,6.33-2,9.46-3.16,6.36-2.27,7.67-4.14,7.88-11C238.32,115.59,238.83,110.14,238.2,104.7Z" style="fill:#202020"/><path d="M203,171c3,5,2.14,14.62,2.16,18.45,0,4.92-2.28,8.19-6.86,9.91-.47.18-.92.37-1.4.53-17.81,5.78-16.26,7.28-30.22-6.95-6.88-7-14-13.79-20.77-20.93-2.47-2.62-4.62-2.85-7.82-1.71-10,3.55-20.22,6.61-30.21,10.24-6.14,2.23-10.83.86-15.31-3.68Q67.27,151.27,41.66,126c-4-4-6.42-8.45-5.87-14.2.34-3.6-.94-6.32-3.56-8.85C23.72,94.71,15.39,86.33,7,78,1.81,79.7.8,81.18.52,87.56.23,91,1.1,94.57,0,98v2c5.3,3.21,8.65,8.52,12.8,12.83C38.41,139.43,65,165,90.93,191.34a50.5,50.5,0,0,0,4.24,3.44,9,9,0,0,0,9.35,1.51c3.75-1.34,7.78-2.1,11.29-3.88,4.4-2.23,7.19-1.06,10.42,2.28,11.24,11.58,22.8,22.85,34.18,34.29A77.69,77.69,0,0,0,171,238c2.12,1,4.36.24,6.53.47a48.68,48.68,0,0,0,8.8-1.45,4,4,0,0,0,1.39-.53,69.21,69.21,0,0,1,22.13-11.9,8.68,8.68,0,0,0,6-7.45c.73-9.52,2.73-19.46-6.08-26.9-2.07-1.74-2.35-4.23-2.47-6.81C207.22,181.46,205.77,172,203,171Z" style="fill:#cacaca"/><path d="M.93,86.89,0,87V98C2.11,94.45.53,90.58.93,86.89Z" style="fill:#d4d4d4"/><path d="M184.21,197.1a19.22,19.22,0,0,0,4.29-1.16c3.49-1.84,9.51-.71,10.17-5.68.88-6.55,1.28-13.07-4.73-18.83-19-18.21-37.37-37.08-56-55.7a43.17,43.17,0,0,1-3.09-3.26c-1.28-1.59-2.33-3.28-1.11-5.44s3.17-2.37,5.19-2.12a31.27,31.27,0,0,1,5.79,1.38c21.25,7.07,42.56,14,63.72,21.38,8.48,3,15.06-2,22.36-4.08a2.54,2.54,0,0,0,1.25-2c.12-5.32.22-10.65,0-16-.1-2.81-2.82-3-4.77-3.61q-46.52-15.56-93.06-31c-8.25-2.74-11.62-9.31-8.94-17.45.35-1.06.88-1.85,2-1.74s1.56,1.05,1.59,2.14c0,.5,0,1,0,1.5.4,10.14.39,10.15,10.17,13.39C150,72.41,160.8,76,171.55,79.52c2.07-9.29,0-16.41-7.36-22.51-7.13-5.95-13.43-12.93-19.85-19.7a13.68,13.68,0,0,0-11-4.48c-14.32.22-28.66.11-43,0-1.8,0-4.81,1-4.83-1.83s3-1.73,4.79-1.9c1.44-.13,2.91,0,4.83,0C87.84,21.65,81,14.52,74,7.53,72.72,6.25,70.74,6.08,68.85,6,48.61,5.11,48.6,5.09,34.11,19.59,32.36,21.34,30.71,23.2,29,25c-.33,3.23,2.4,4.55,4.17,6.32Q103,101.26,173,171c5.67,5.63,8.9,11.33,7.83,19.29a14.92,14.92,0,0,0,.13,4.47C181.25,196.56,181.85,198.08,184.21,197.1Z" style="fill:#fefefe"/><path d="M184.21,197.1c-2.66-.42-2.46-2.53-2.17-4.25,1.84-10.88-3.39-18.1-10.88-25.49C124.85,121.64,79,75.48,33,29.45c-1.4-1.4-2.65-2.95-4-4.44-5.93,5.82-11.94,11.54-17.74,17.48-3.72,3.82-3.88,26-.42,30.1.75.88,1.61,1.68,2.43,2.5,7.94,8,15.89,16,25,25.2,0-3.58,0-5.77,0-8,0-1.47.5-2.82,2.21-2.66,1.43.14,1.52,1.48,1.52,2.71,0,6.65.08,13.31,0,20a10.4,10.4,0,0,0,3.17,8.05Q71.46,146.67,97.74,173c.91.91,1.67,2.17,3.27,2,1.6-1.78,1.44-4,1.45-6.13,0-6.8.21-13.61,0-20.4-.22-5.81,1.38-10.1,7.46-11.77a3.83,3.83,0,0,0,2.34-1.75c-.36-3.05.74-3.85,3.3-2a21.93,21.93,0,0,1,2.5,2.42q29.56,29.58,59.17,59.12C179.05,196.27,180.73,199.22,184.21,197.1Z" style="fill:#ebebeb"/><path d="M112.22,134.9c-9.44,1.6-11.21,3.63-11.21,12.82V175a8.9,8.9,0,0,0,2.9.08c12-3.9,23.9-7.89,35.93-11.89-5.39-7.72-5.43-7.74-13.5-5.07-3,1-6,2-9,3-1.74.53-4.16,2.42-5.06-.33-.79-2.41,2.13-2.37,3.71-2.93,4.52-1.61,9.07-3.13,13.61-4.68Z" style="fill:#fefefe"/><path d="M136.43,109.36c3.57,3.46,6.91,6.6,10.15,9.85,1,1,2.07.81,3.21.61s2.14,0,2.29,1.22c1.11,9.42,10.44,12.16,15.21,18.61,1.16,1.57,3.5,0,4.45-1.73,1.83-3.36-.08-15.13-2.83-17.93-1.27-1.28-2.43-2.59-4.34-3.2-7.75-2.47-15.42-5.19-23.15-7.71C140.13,108.66,138.65,108,136.43,109.36Z" style="fill:#fdfdfd"/></g></g></g></svg>