<svg xmlns="http://www.w3.org/2000/svg" viewBox="0 0 238.52 238.54"><title>scissor-right</title><g id="Layer_2" data-name="Layer 2"><g id="Layer_1-2" data-name="Layer 1"><g id="vP45Zf.tif"><path d="M.32,104.7c.2-4.28,2.81-6.46,6.6-7.73,16-5.33,32-10.82,48-16,3.7-1.2,5.59-2.81,5.13-6.92-.93-8.28,2.5-14.53,8.65-20.07,7.78-7,15-14.66,22.27-22.23a14.82,14.82,0,0,1,12-4.85c9.31.25,18.65-.05,28-.06a11.54,11.54,0,0,0,8.86-3.77c5-5.17,10.22-10,15.23-15.15A51.17,51.17,0,0,1,164.52,0h28a23,23,0,0,1,7.71,5.33c10.15,10.11,20.15,20.38,30.4,30.39,4.8,4.7,7.55,10,7,16.88a96.39,96.39,0,0,0,0,12.49,16.51,16.51,0,0,1-5.24,13.5c-8.22,8-16.21,16.26-24.42,24.29-2.79,2.72-4.49,5.76-4.09,9.72.55,5.6-1.77,10.07-5.54,13.88q-25.48,25.7-51.17,51.18c-4.92,4.9-10.47,6.46-17.31,4-9.38-3.39-19-6.26-28.36-9.6-3.65-1.3-6.18-.67-8.86,2.11-8.22,8.48-16.74,16.67-25,25.13-5.32,5.45-11.1,7.05-18.52,4.48-16.76-5.8-16.82-5.61-16.8-23.53,0-.67,0-1.33,0-2,.19-5,3.66-8.25,6.59-11.71,2.1-2.5,4.58-4.67,6.87-7,4.58-4.36,8.86-9,13.52-13.32,2-1.79,2.32-3.12.78-5.38a11.07,11.07,0,0,1-1.42-5.76,7.89,7.89,0,0,1,.17-1.37c.08-2.51,1.73-5.15-.68-7.41-8.78,3.19-17.66,6-26.5,8.94a22.26,22.26,0,0,1-14.22,0c-3.17-1-6.34-2-9.47-3.16C1.57,129.78.25,127.91,0,121,.2,115.59-.3,110.14.32,104.7Z" style="fill:#202020"/><path d="M35.52,171c-3,5-2.14,14.62-2.16,18.45,0,4.92,2.29,8.19,6.86,9.91.47.18.93.37,1.4.53,17.81,5.78,16.27,7.28,30.22-6.95,6.88-7,14-13.79,20.77-20.93,2.47-2.62,4.62-2.85,7.82-1.71,10,3.55,20.22,6.61,30.22,10.24,6.13,2.23,10.82.86,15.31-3.68q25.31-25.59,50.9-50.9c4-4,6.42-8.45,5.88-14.2-.34-3.6.93-6.32,3.55-8.85,8.51-8.2,16.85-16.58,25.25-24.89,5.18,1.68,6.18,3.16,6.47,9.54.28,3.48-.59,7,.51,10.44,0,.67-3.26,4.33-3.26,5-5.3,3.21-5.38,5.52-9.54,9.83-25.61,26.6-52.22,52.21-78.12,78.51a50.65,50.65,0,0,1-4.25,3.44,9,9,0,0,1-9.35,1.51c-3.75-1.34-7.77-2.1-11.29-3.88-4.4-2.23-7.18-1.06-10.42,2.28C101.05,206.27,89.5,217.54,78.11,229a76.5,76.5,0,0,1-10.57,9c-2.11,1-4.36.24-6.52.47A48.64,48.64,0,0,1,52.21,237a4.18,4.18,0,0,1-1.39-.53,69,69,0,0,0-22.13-11.9,8.7,8.7,0,0,1-6-7.45c-.73-9.52-2.72-19.46,6.09-26.9,2.07-1.74,2.35-4.23,2.46-6.81C31.3,181.46,32.75,172,35.52,171Z" style="fill:#cacaca"/><path d="M54.31,197.1A19.37,19.37,0,0,1,50,195.94c-3.48-1.84-9.5-.71-10.17-5.68-.88-6.55-1.28-13.07,4.73-18.83,19-18.21,37.38-37.08,56-55.7a41.12,41.12,0,0,0,3.08-3.26c1.28-1.59,2.34-3.28,1.11-5.44s-3.17-2.37-5.19-2.12a31.36,31.36,0,0,0-5.78,1.38c-21.26,7.07-42.57,14-63.72,21.38-8.48,3-15.07-2-22.37-4.08a2.57,2.57,0,0,1-1.25-2c-.11-5.32-.21-10.65,0-16,.1-2.81,2.83-3,4.78-3.61q46.52-15.56,93.06-31c8.24-2.74,11.61-9.31,8.93-17.45-.35-1.06-.88-1.85-2-1.74s-1.56,1.05-1.58,2.14c0,.5,0,1,0,1.5-.39,10.14-.39,10.15-10.17,13.39C88.55,72.41,77.72,76,67,79.52,64.91,70.23,67,63.11,74.33,57c7.14-5.95,13.44-12.93,19.86-19.7a13.66,13.66,0,0,1,11-4.48c14.33.22,28.66.11,43,0,1.79,0,4.8,1,4.83-1.83s-3-1.73-4.8-1.9c-1.44-.13-2.91,0-4.83,0,7.28-7.46,14.13-14.59,21.12-21.58,1.28-1.28,3.25-1.45,5.14-1.53,20.24-.89,20.25-.91,34.74,13.59,1.76,1.75,3.41,3.61,5.11,5.42.33,3.23-2.41,4.55-4.18,6.32Q135.55,101.26,65.53,171c-5.67,5.63-8.9,11.33-7.83,19.29a15.25,15.25,0,0,1-.12,4.47C57.27,196.56,56.67,198.08,54.31,197.1Z" style="fill:#fefefe"/><path d="M54.31,197.1c2.66-.42,2.46-2.53,2.17-4.25-1.83-10.88,3.4-18.1,10.88-25.49,46.31-45.72,92.18-91.88,138.19-137.91,1.4-1.4,2.65-2.95,4-4.44,5.92,5.82,11.94,11.54,17.73,17.48,3.73,3.82,3.88,26,.43,30.1-.75.88-1.61,1.68-2.43,2.5l-25,25.2c0-3.58,0-5.77,0-8,0-1.47-.51-2.82-2.22-2.66-1.43.14-1.51,1.48-1.51,2.71,0,6.65-.08,13.31,0,20a10.4,10.4,0,0,1-3.17,8.05Q167.08,146.67,140.78,173c-.9.91-1.66,2.17-3.26,2-1.6-1.78-1.44-4-1.46-6.13,0-6.8-.21-13.61.05-20.4.21-5.81-1.38-10.1-7.47-11.77a3.86,3.86,0,0,1-2.34-1.75c.36-3.05-.73-3.85-3.3-2a22.79,22.79,0,0,0-2.5,2.42q-29.56,29.58-59.16,59.12C59.48,196.27,57.79,199.22,54.31,197.1Z" style="fill:#ebebeb"/><path d="M126.3,134.9c9.44,1.6,11.21,3.63,11.21,12.82s0,18.15,0,27.23a8.91,8.91,0,0,1-2.9.08c-12-3.9-23.9-7.89-35.94-11.89,5.4-7.72,5.44-7.74,13.5-5.07,3,1,6,2,9,3,1.74.53,4.16,2.42,5.06-.33.79-2.41-2.13-2.37-3.71-2.93-4.52-1.61-9.07-3.13-13.62-4.68Z" style="fill:#fefefe"/><path d="M102.1,109.36c-3.58,3.46-6.92,6.6-10.16,9.85-1,1-2.06.81-3.21.61s-2.14,0-2.29,1.22c-1.1,9.42-10.43,12.16-15.21,18.61-1.16,1.57-3.5,0-4.44-1.73-1.83-3.36.07-15.13,2.83-17.93a10.65,10.65,0,0,1,4.34-3.2c7.74-2.47,15.41-5.19,23.15-7.71C98.39,108.66,99.88,108,102.1,109.36Z" style="fill:#fdfdfd"/></g></g></g></svg>